<?xml version="1.0" standalone="no"?>
<!DOCTYPE svg PUBLIC "-//W3C//DTD SVG 20010904//EN"
 "http://www.w3.org/TR/2001/REC-SVG-20010904/DTD/svg10.dtd">
<svg version="1.0" xmlns="http://www.w3.org/2000/svg"
 width="1280.000000pt" height="845.000000pt" viewBox="0 0 1280.000000 845.000000"
 preserveAspectRatio="xMidYMid meet">
<metadata>
Created by potrace 1.15, written by Peter Selinger 2001-2017
</metadata>
<g transform="translate(0.000000,845.000000) scale(0.100000,-0.100000)"
fill="#000000" stroke="none">
<path d="M7817 8434 c-64 -20 -317 -191 -317 -214 0 -9 9 -43 20 -75 24 -69
25 -95 6 -95 -8 0 -24 -12 -36 -27 -25 -33 -22 -73 14 -143 20 -40 21 -49 10
-75 -16 -38 -18 -146 -2 -180 10 -23 38 -35 38 -17 5 122 21 310 31 341 l12
41 23 -25 c20 -21 32 -25 84 -25 52 0 60 2 60 19 0 28 -20 40 -82 47 -72 8
-82 15 -74 48 11 45 70 29 147 -41 43 -39 48 -32 22 39 -14 41 -21 47 -52 53
-83 15 -94 42 -47 112 20 32 23 33 89 33 49 0 79 6 108 21 23 11 43 19 45 17
2 -2 9 -21 16 -43 10 -31 19 -41 43 -46 53 -12 103 -38 109 -57 4 -11 31 -47
61 -82 67 -77 81 -115 66 -175 -15 -59 -13 -106 4 -128 13 -18 15 -16 34 21
21 42 47 72 60 72 13 0 -7 -90 -25 -119 -9 -14 -28 -38 -41 -53 -22 -23 -29
-25 -54 -16 -39 13 -51 2 -118 -107 -67 -110 -126 -156 -174 -134 -17 8 -39 6
-86 -6 -35 -9 -76 -13 -91 -10 -17 4 -51 31 -83 66 -30 32 -62 59 -70 59 -9 0
-22 -26 -36 -72 -11 -40 -21 -78 -21 -83 0 -20 -424 -117 -543 -125 -133 -9
-151 -20 -274 -162 -101 -118 -204 -221 -281 -280 l-53 -41 -62 29 c-165 77
-437 266 -437 303 0 16 -53 61 -71 61 -10 0 -24 -10 -30 -22 -6 -13 -36 -51
-66 -85 -29 -34 -60 -78 -68 -97 -12 -28 -21 -36 -41 -36 -15 0 -49 -16 -77
-36 -28 -20 -66 -43 -86 -51 -35 -15 -36 -15 -63 16 -15 17 -28 39 -28 49 0
10 44 48 112 97 61 44 136 102 166 128 44 40 59 48 85 45 28 -3 32 0 35 24 2
18 -6 37 -27 61 -24 27 -31 44 -31 78 0 53 -29 120 -61 143 -36 25 -39 20 -19
-31 10 -27 21 -75 25 -107 4 -33 14 -74 22 -92 9 -18 13 -39 10 -46 -3 -8 -38
-34 -78 -58 l-73 -43 -32 37 c-31 36 -94 145 -94 163 0 6 37 13 81 16 87 6
134 27 134 62 0 21 -39 50 -79 60 -27 6 -28 5 -21 -22 15 -58 17 -57 -85 -60
-95 -3 -139 8 -148 35 -2 7 5 12 18 12 49 0 150 77 150 115 0 20 -66 38 -112
31 -23 -4 -54 -16 -70 -27 l-28 -21 -20 44 c-25 54 -25 65 0 78 11 6 43 31 70
55 75 67 105 79 182 76 l28 -1 -17 -35 c-9 -19 -20 -35 -25 -35 -4 0 -8 -4 -8
-9 0 -4 21 -11 46 -14 25 -2 53 -12 61 -20 13 -13 11 -16 -23 -27 -41 -13 -74
-37 -74 -52 0 -5 20 -6 45 -2 36 5 50 3 64 -10 17 -16 20 -13 54 67 20 47 39
110 43 141 l7 56 -29 0 c-16 0 -48 -7 -72 -15 -36 -13 -48 -13 -70 -3 -38 18
-41 55 -7 68 14 5 39 10 55 10 16 0 31 4 34 9 4 5 42 30 86 55 79 46 110 81
110 125 0 43 -24 51 -153 51 -67 0 -180 7 -252 15 -71 8 -184 15 -251 15 -113
0 -122 -1 -142 -23 -14 -15 -22 -36 -22 -59 0 -55 42 -91 143 -122 99 -31 147
-59 147 -86 0 -12 -21 -35 -54 -60 -50 -38 -66 -57 -66 -81 0 -14 28 -11 55 7
13 8 42 40 64 69 23 30 50 59 61 65 17 9 14 0 -15 -62 -47 -99 -73 -128 -119
-128 l-36 0 6 -42 c4 -24 14 -61 24 -84 18 -41 66 -94 85 -94 6 0 28 18 49 40
41 43 69 48 74 14 4 -29 -47 -70 -97 -79 -35 -6 -40 -10 -46 -43 -9 -46 11
-62 77 -62 46 0 48 -1 48 -28 0 -15 11 -44 25 -64 52 -77 52 -80 -18 -176 -35
-48 -71 -100 -79 -117 l-16 -29 148 -161 c242 -263 384 -384 526 -446 27 -12
64 -39 82 -60 38 -44 47 -46 162 -25 114 21 230 68 398 160 150 83 152 84 158
60 7 -27 1 -87 -27 -254 -10 -63 -19 -160 -19 -215 0 -173 -32 -413 -71 -533
-11 -33 -11 -33 -26 -13 -8 12 -23 21 -33 21 -14 0 -29 18 -49 59 -31 61 -72
102 -128 129 -24 12 -33 23 -35 46 l-3 31 -125 5 c-118 5 -170 18 -170 40 0
21 274 8 353 -16 17 -5 17 -7 1 -18 -20 -15 -11 -36 16 -36 23 0 45 32 55 76
5 28 3 32 -18 38 -14 3 -47 26 -75 51 -62 56 -92 58 -139 13 l-33 -32 -38 36
c-35 34 -90 68 -110 68 -6 0 -13 -12 -16 -26 -4 -14 -25 -46 -48 -70 l-42 -46
39 -32 39 -33 -37 -18 c-23 -11 -37 -24 -37 -36 0 -53 -35 -99 -184 -242 -131
-124 -159 -147 -185 -147 -29 0 -31 -2 -31 -39 0 -73 70 -121 91 -64 8 21 6
23 -24 20 -23 -1 -32 2 -32 13 0 11 13 16 46 18 46 3 46 3 52 -31 3 -19 16
-51 29 -71 21 -33 27 -36 70 -36 51 0 48 -5 63 97 8 51 35 89 58 80 13 -5 15
-16 10 -56 l-6 -49 52 -27 c38 -19 64 -25 94 -23 39 3 42 5 41 33 0 17 -4 49
-8 73 -7 40 -6 42 16 42 13 0 33 -7 45 -15 22 -15 25 -30 37 -153 l5 -52 -39
22 c-42 25 -58 21 -41 -10 18 -33 13 -77 -16 -143 l-27 -62 23 -18 c29 -23 61
-17 116 23 37 26 46 28 119 25 69 -2 80 -5 97 -26 29 -35 21 -56 -21 -56 -19
1 -45 4 -57 8 -22 8 -21 6 9 -64 21 -46 40 -75 56 -82 17 -8 22 -16 18 -32 -3
-12 0 -30 8 -40 11 -15 21 -17 60 -11 54 8 89 37 84 69 -2 18 -11 23 -48 27
-34 4 -44 9 -41 20 16 59 12 81 -25 145 -43 73 -65 83 -149 71 l-45 -7 0 85
c0 74 3 88 23 109 12 14 28 47 35 73 16 60 46 94 83 94 36 0 45 -27 23 -73
-24 -51 -14 -67 42 -67 l46 0 -7 -95 -7 -95 36 0 c19 0 58 9 86 20 28 11 68
20 89 20 36 0 39 -2 52 -42 8 -27 14 -93 15 -178 1 -115 5 -142 22 -180 13
-26 22 -66 22 -94 0 -46 -1 -48 -25 -44 -21 4 -25 1 -25 -18 0 -27 -3 -27 -97
-24 -59 2 -103 -11 -103 -30 0 -5 15 -16 34 -24 31 -13 68 -55 49 -57 -4 0
-48 0 -98 1 -105 0 -120 -6 -106 -42 15 -39 27 -41 51 -8 20 29 25 30 93 30
51 0 82 5 107 18 42 23 50 42 16 42 -42 0 -38 17 6 23 30 4 48 13 61 31 21 30
59 33 120 12 37 -14 38 -13 52 15 22 42 75 78 156 105 l71 24 29 -21 c35 -25
36 -38 5 -84 -14 -20 -30 -53 -37 -73 -6 -20 -20 -54 -31 -75 -19 -38 -13 -46
22 -27 17 9 30 39 44 103 6 25 9 27 44 21 29 -4 49 1 94 25 32 17 64 31 73 31
36 0 1 -94 -41 -110 -14 -6 -51 -10 -82 -10 -54 -1 -56 -2 -37 -16 15 -12 34
-14 73 -11 29 3 108 2 175 -3 67 -5 284 -14 482 -20 198 -6 436 -15 529 -21
146 -9 171 -8 185 5 9 8 41 26 72 40 51 22 56 27 72 77 17 55 25 106 52 330 8
69 30 182 49 250 61 225 63 267 17 354 -17 32 -28 62 -24 68 4 6 -2 8 -16 4
-34 -8 -49 1 -56 35 -5 22 -10 27 -18 19 -16 -16 -64 -14 -70 3 -3 7 1 26 9
42 18 34 12 54 -16 54 -12 0 -30 5 -40 10 -18 10 -18 13 11 63 17 28 38 60 46
69 20 23 11 33 -57 68 -62 31 -90 61 -90 96 0 28 18 35 66 23 60 -14 281 -39
359 -40 38 -1 83 -4 99 -8 28 -6 29 -7 12 -24 -23 -23 -58 -40 -124 -62 -30
-9 -69 -31 -88 -47 -18 -16 -38 -27 -44 -23 -6 4 -27 4 -46 0 -29 -5 -35 -10
-32 -27 4 -29 47 -58 96 -65 62 -8 53 26 -10 41 -16 3 -28 11 -28 16 0 17 39
11 81 -12 40 -23 40 -23 51 -3 16 27 52 62 124 116 66 51 103 108 79 122 -8 4
-70 12 -139 17 -153 10 -166 16 -166 74 0 55 -28 208 -79 426 -45 195 -61 307
-61 422 l0 78 -52 33 c-29 19 -132 75 -228 126 -197 105 -274 156 -341 228
-68 72 -83 107 -84 183 0 56 5 74 36 129 34 63 36 65 77 66 54 1 90 28 121 91
20 40 25 65 26 139 0 65 5 97 17 115 50 78 18 222 -80 356 -25 35 -38 43 -76
48 -25 4 -82 26 -128 48 -69 34 -95 42 -153 45 -44 2 -88 -3 -118 -13z"/>
<path d="M7948 8043 c-23 -6 -23 -20 1 -33 25 -13 191 -13 191 -1 0 24 -46 41
-110 40 -36 -1 -73 -3 -82 -6z"/>
<path d="M7944 7955 c-8 -20 23 -65 57 -82 42 -22 139 -9 139 19 0 11 -114 64
-158 73 -25 5 -33 3 -38 -10z"/>
<path d="M7720 7800 c0 -10 10 -29 23 -40 17 -17 30 -20 57 -15 39 7 66 28 56
43 -6 11 -83 32 -115 32 -14 0 -21 -6 -21 -20z"/>
<path d="M4300 7786 c0 -20 7 -25 38 -31 60 -11 131 -46 151 -74 22 -32 32
-81 25 -120 -7 -35 -57 -61 -118 -61 -54 0 -67 15 -64 71 3 43 2 44 -27 42
-16 -1 -47 -5 -67 -9 -35 -6 -38 -5 -38 19 0 13 18 51 40 83 22 33 40 62 40
67 0 14 -64 -24 -103 -62 -21 -20 -45 -48 -53 -64 -12 -23 -18 -26 -34 -17
-29 16 -40 12 -40 -15 0 -39 -38 -56 -140 -65 -50 -4 -95 -11 -99 -16 -11 -12
-201 -365 -201 -374 0 -3 18 -31 40 -60 22 -29 40 -63 40 -74 0 -12 -11 -48
-25 -81 -27 -66 -33 -160 -12 -187 24 -32 107 -52 222 -54 l110 -2 17 -39 c23
-51 23 -125 -1 -171 -38 -73 -117 -131 -326 -240 -122 -64 -124 -67 -132 -145
-6 -72 7 -91 26 -37 18 54 101 121 243 198 189 103 249 167 263 278 10 82 -5
135 -45 162 -43 29 -58 56 -40 77 7 8 20 15 30 15 9 0 25 9 36 21 18 20 18 21
-5 64 -12 23 -21 53 -19 66 3 23 7 24 83 25 89 0 122 13 131 49 9 37 -3 47
-46 40 -38 -6 -64 8 -34 19 11 4 13 14 9 38 -5 30 -2 35 30 56 37 23 46 56 19
66 -38 15 -85 3 -178 -44 -95 -49 -100 -50 -118 -33 -80 72 -9 119 204 134
l130 9 84 -61 84 -60 0 -52 c0 -29 -4 -58 -9 -66 -7 -10 0 -19 27 -34 21 -10
49 -26 64 -33 24 -13 27 -22 33 -90 13 -137 -27 -283 -86 -315 -59 -31 -132
-48 -170 -40 -21 5 -39 5 -39 1 0 -4 28 -13 63 -20 35 -6 68 -15 73 -18 6 -4
16 -33 23 -65 10 -47 17 -60 38 -68 14 -5 39 -21 55 -34 37 -32 108 -52 228
-65 216 -24 246 -39 299 -144 l40 -79 -19 -28 c-11 -15 -43 -45 -72 -65 -32
-24 -46 -40 -37 -42 30 -9 60 -47 79 -101 12 -31 45 -99 75 -151 74 -129 96
-182 102 -245 10 -97 -9 -144 -113 -273 -51 -65 -110 -147 -129 -184 -41 -77
-69 -195 -61 -250 5 -32 2 -42 -24 -71 -40 -46 -40 -81 0 -102 42 -22 37 -33
-17 -37 -26 -2 -48 -9 -51 -15 -2 -8 5 -12 20 -11 13 1 58 -2 101 -6 48 -5 77
-4 77 2 0 5 -11 13 -25 16 -13 3 -40 27 -60 53 l-36 48 28 22 c27 22 28 26 28
110 0 78 4 96 31 153 35 73 104 157 122 147 21 -14 52 -117 63 -211 6 -52 9
-155 8 -230 -2 -75 -3 -136 -2 -136 2 0 11 17 20 38 14 30 17 65 17 192 -1
168 -16 250 -70 370 l-26 57 50 51 c52 51 81 118 82 186 l1 31 49 -53 c85 -94
134 -206 149 -342 11 -103 0 -198 -43 -368 -19 -75 -38 -166 -42 -201 -5 -50
-11 -65 -25 -68 -27 -7 -26 -59 1 -73 24 -13 26 -45 4 -54 -53 -20 -171 8
-182 43 -4 11 6 13 52 8 56 -6 72 4 39 22 -10 5 -43 11 -74 12 -43 3 -61 0
-76 -13 -16 -15 -53 -17 -324 -20 -272 -3 -308 -5 -332 -21 -35 -23 -34 -31
10 -58 30 -19 49 -22 112 -21 42 1 229 3 416 5 492 4 451 1 459 38 7 35 11 35
138 -3 36 -10 81 -18 100 -16 32 3 33 5 31 42 -3 40 -26 86 -43 86 -6 0 -10
-16 -10 -35 0 -20 -6 -38 -13 -41 -7 -2 -57 4 -112 15 -120 25 -152 48 -141
104 11 60 29 66 97 28 58 -32 108 -38 116 -15 2 6 -25 24 -60 38 -35 15 -76
37 -91 49 l-26 22 16 95 c9 52 27 138 41 190 29 109 28 96 13 220 -20 165 -27
191 -70 245 -21 28 -65 87 -97 133 -55 80 -57 86 -60 153 -2 44 -10 84 -22
107 -34 68 -69 176 -95 302 -70 326 -103 360 -378 400 -224 32 -277 52 -304
116 -17 41 -18 84 -2 84 20 0 77 50 94 82 37 71 45 120 42 267 l-2 144 51 46
c28 25 56 56 62 68 44 87 -49 219 -184 263 -22 7 -43 18 -47 23 -11 18 10 45
46 57 29 9 35 17 38 43 5 54 -14 207 -26 207 -6 0 -49 16 -96 35 -102 42 -130
45 -130 11z"/>
<path d="M7637 7706 c-6 -16 42 -91 73 -113 17 -12 27 -13 40 -5 10 6 45 14
78 18 80 9 94 18 62 44 -66 51 -240 90 -253 56z"/>
<path d="M2775 7435 c-5 -2 -34 -11 -64 -20 -115 -35 -225 -99 -283 -163 -36
-40 -42 -56 -53 -148 -4 -32 -19 -73 -41 -108 -52 -87 -52 -95 -4 -191 33 -66
40 -90 35 -114 -5 -23 0 -46 20 -86 22 -48 24 -60 15 -93 -17 -64 -53 -89
-170 -117 -41 -10 -118 -36 -170 -58 -52 -21 -142 -52 -198 -68 -120 -34 -147
-47 -184 -86 -38 -40 -48 -74 -48 -164 0 -71 -4 -87 -35 -150 -53 -104 -89
-222 -149 -481 -30 -128 -57 -247 -60 -263 l-7 -30 -72 3 c-85 5 -94 -2 -103
-71 -11 -80 19 -124 151 -222 61 -45 122 -96 133 -113 20 -27 29 -30 114 -41
172 -21 461 -41 768 -52 168 -7 306 -13 307 -13 1 -1 5 -96 9 -212 6 -206 15
-254 44 -254 14 0 12 125 -5 335 -21 254 -22 237 21 229 46 -9 44 14 -4 35
-23 10 -32 21 -32 38 0 33 35 30 71 -6 24 -24 29 -38 29 -78 0 -26 9 -263 20
-527 40 -969 45 -1841 11 -2061 -5 -33 -14 -91 -20 -130 -6 -38 -15 -153 -21
-255 -10 -199 -71 -790 -95 -932 -9 -47 -23 -104 -32 -125 -13 -28 -19 -79
-23 -195 -4 -134 -8 -159 -24 -177 -11 -12 -22 -21 -26 -21 -7 0 2 94 30 325
11 88 24 207 30 265 6 58 25 158 41 222 16 65 34 170 39 235 6 65 15 150 20
188 11 81 12 752 1 839 -6 44 -13 64 -31 78 -23 19 -24 19 -43 -1 -12 -12 -19
-30 -17 -48 6 -77 -1 -653 -10 -800 -6 -92 -13 -240 -16 -328 -6 -160 -14
-209 -39 -219 -20 -7 -27 267 -23 902 l3 544 32 -5 c34 -6 70 18 42 27 -20 7
-293 49 -589 91 -140 20 -306 47 -368 60 l-114 23 -19 -42 c-15 -32 -19 -65
-19 -156 0 -194 -49 -783 -66 -812 -3 -4 -9 -70 -14 -145 -7 -119 -17 -171
-70 -378 -34 -132 -73 -266 -87 -297 -24 -54 -73 -114 -73 -89 0 6 21 94 46
194 107 428 144 805 144 1482 0 415 -18 845 -51 1245 -11 135 -24 371 -29 525
-6 195 -13 301 -24 349 -9 38 -20 114 -25 168 -6 72 -13 103 -26 118 -10 11
-20 18 -22 16 -2 -2 5 -111 16 -242 39 -465 61 -917 61 -1240 l0 -222 -282 4
c-156 2 -438 6 -628 8 -190 3 -354 8 -366 11 -45 14 -63 -135 -43 -370 9 -117
13 -444 14 -1215 2 -984 6 -1184 31 -1454 l7 -69 836 9 c1372 15 1493 12 1638
-33 l53 -17 37 27 37 27 1866 -2 c1426 -1 1916 2 2080 12 291 17 683 10 709
-15 17 -15 25 -15 78 -3 45 10 241 13 908 13 496 0 1029 6 1280 14 313 10 652
12 1245 8 742 -6 1410 1 1728 19 l122 7 20 64 c37 120 45 271 70 1258 5 215
15 541 21 725 11 312 7 728 -8 948 l-6 92 -301 0 c-166 0 -325 3 -355 7 l-53
6 7 41 c3 23 15 97 26 166 25 164 58 286 136 504 62 173 137 400 244 737 31
97 78 213 123 305 89 183 114 252 124 352 9 75 8 77 -19 104 -33 34 -78 37
-124 8 -35 -22 -45 -49 -45 -129 0 -25 -4 -52 -9 -59 -6 -10 -52 -14 -184 -17
l-177 -3 15 28 c8 15 17 45 21 66 5 34 2 43 -24 67 -48 46 -140 49 -182 7 -26
-26 -26 -85 0 -128 l20 -32 -23 -38 c-42 -67 -77 -168 -121 -359 -25 -103 -65
-254 -90 -335 -49 -159 -76 -278 -76 -330 l0 -33 20 25 c30 39 54 111 100 300
101 418 133 542 167 653 40 128 52 140 101 95 22 -22 30 -23 183 -20 119 2
167 -1 193 -12 l33 -14 -86 -173 c-79 -159 -89 -176 -124 -192 -33 -15 -40
-16 -60 -3 -19 13 -28 13 -74 -3 -29 -10 -53 -14 -53 -10 0 13 -31 39 -46 39
-9 0 -14 -11 -14 -35 0 -42 -14 -45 -34 -6 -23 44 -41 45 -71 0 -38 -54 -24
-69 60 -69 86 0 92 -9 59 -96 -51 -135 -96 -314 -164 -649 -38 -187 -85 -392
-104 -455 -63 -209 -77 -291 -56 -331 16 -28 24 -24 53 29 34 64 52 138 77
326 18 136 27 174 65 271 34 84 51 150 70 261 28 162 38 200 95 344 21 53 41
118 45 145 4 28 11 65 17 82 10 34 45 66 60 57 18 -11 6 -93 -31 -203 -21 -64
-51 -168 -66 -231 -15 -63 -58 -243 -97 -400 -120 -491 -137 -570 -157 -736
-6 -53 -5 -62 6 -52 25 20 31 41 108 364 102 434 202 804 275 1025 157 470
329 815 385 769 24 -20 18 -67 -17 -118 -18 -26 -60 -110 -94 -187 -34 -77
-84 -189 -111 -250 -70 -154 -92 -221 -90 -285 0 -44 -9 -80 -47 -175 -64
-162 -127 -362 -176 -563 -113 -459 -139 -572 -145 -624 -6 -55 -5 -58 18 -69
36 -16 49 -50 31 -84 -18 -35 -18 -35 9 -35 34 0 59 32 65 86 5 51 -4 64 -51
64 -28 0 -28 0 -22 53 4 28 8 62 11 75 l4 22 308 0 c169 0 324 -3 345 -6 l37
-7 0 -416 c-1 -420 -9 -658 -31 -830 -12 -93 -12 -94 11 -111 22 -17 23 -21
16 -111 -4 -52 -13 -355 -21 -674 -8 -319 -18 -632 -21 -696 l-7 -116 -376 -7
c-1639 -27 -5448 -49 -6210 -37 -321 6 -585 12 -588 15 -8 7 100 53 157 66
100 23 160 49 164 73 3 12 8 42 13 67 l8 45 100 7 c430 30 1661 26 1935 -7
161 -19 244 -19 331 1 66 15 69 17 69 45 0 36 13 38 28 4 11 -23 16 -25 64
-20 167 16 1148 44 1593 45 67 0 72 1 88 29 9 16 17 39 17 51 0 21 0 21 -249
18 -178 -2 -253 0 -261 8 -22 22 83 46 300 69 224 23 236 27 266 87 31 62 59
74 97 42 57 -48 148 -43 198 9 42 45 101 154 88 163 -6 3 -31 -8 -56 -25 -61
-43 -91 -48 -126 -19 -26 22 -56 102 -42 116 3 3 28 0 56 -6 58 -14 158 -16
177 -4 34 22 33 121 -2 191 -7 14 -16 55 -20 91 -4 36 -23 151 -42 255 -23
127 -38 244 -44 352 -7 125 -13 173 -28 207 -19 41 -38 63 -48 54 -2 -3 12
-155 31 -339 52 -501 70 -615 97 -645 25 -28 37 -74 27 -102 -7 -18 -16 -22
-53 -22 l-45 0 -3 73 c-3 80 -21 98 -26 25 -4 -57 -28 -85 -37 -41 -11 58 -30
107 -43 111 -9 3 -11 -3 -6 -22 4 -17 -3 -43 -19 -80 -22 -48 -25 -66 -21
-123 7 -96 -11 -123 -120 -174 -123 -57 -128 -57 -144 16 -8 33 -16 66 -18 74
-8 25 -23 -2 -34 -59 -6 -29 -12 -56 -15 -59 -10 -10 -27 17 -38 63 -7 26 -17
47 -22 47 -6 0 -12 -30 -15 -66 -5 -60 -16 -84 -41 -85 -16 0 -27 29 -32 84
-3 32 -11 64 -17 70 -18 18 -31 -14 -26 -60 7 -53 -2 -82 -26 -90 -26 -8 -31
-1 -32 42 -1 42 -26 61 -26 20 0 -46 -17 -76 -45 -76 -30 0 -28 -10 -29 165
l-1 140 -48 117 c-49 122 -59 187 -36 245 6 15 11 69 11 118 -1 50 8 150 20
223 17 106 19 137 9 158 -9 21 -14 24 -26 14 -11 -9 -15 -36 -15 -106 0 -63
-9 -137 -27 -226 -25 -122 -28 -152 -28 -363 0 -154 5 -252 14 -297 12 -64 12
-69 -9 -102 -72 -117 -244 -181 -422 -157 -45 6 -83 13 -86 16 -2 2 -7 24 -9
50 -8 69 -25 61 -38 -17 -5 -31 -10 -38 -29 -38 -23 0 -23 2 -15 40 6 27 6 48
-2 61 -17 32 -39 5 -39 -47 0 -72 -25 -67 -45 9 -13 50 -28 48 -37 -4 -9 -52
-18 -61 -54 -57 -26 3 -29 7 -34 47 -5 43 -30 72 -30 34 0 -10 -16 -49 -35
-87 -32 -65 -33 -68 -12 -62 12 4 78 9 147 12 118 5 127 4 160 -17 l35 -23
-80 -8 c-235 -23 -281 -30 -321 -48 -51 -22 -60 -8 -19 30 14 13 25 29 25 37
0 17 -40 16 -64 -2 -32 -24 -46 -18 -67 30 -11 24 -29 51 -41 59 -37 26 -118
-1 -160 -53 l-23 -30 -127 -3 c-112 -3 -129 -1 -145 15 -17 18 -17 19 7 39 23
19 34 20 130 15 58 -3 112 -7 120 -9 12 -2 16 19 22 127 16 325 30 911 24
1022 -7 114 -6 123 14 143 25 25 25 36 0 43 -17 4 -20 14 -20 55 0 53 -13 102
-28 102 -4 0 -8 -73 -8 -163 1 -89 -3 -322 -8 -519 l-9 -356 -23 -11 c-33 -15
-29 -40 9 -54 37 -14 8 -63 -45 -74 -36 -7 -31 -25 11 -35 27 -8 32 -13 29
-35 -2 -22 -10 -28 -47 -37 -52 -13 -73 -42 -22 -31 44 9 71 -2 71 -29 0 -21
-5 -24 -77 -30 -42 -3 -98 -6 -125 -6 l-48 0 0 43 c0 23 -4 48 -9 56 -11 17
-17 -12 -26 -114 -15 -178 -29 -192 -40 -38 -7 98 -9 105 -22 88 -11 -15 -14
-38 -10 -92 8 -113 7 -114 -76 -111 l-71 3 -10 55 c-8 41 -16 56 -30 58 -17 4
-18 -1 -12 -40 10 -64 1 -78 -45 -78 l-39 0 0 75 c0 103 -21 101 -50 -5 -24
-87 -10 -84 -465 -85 -214 0 -557 4 -760 9 -299 7 -375 7 -395 -4 l-24 -13 24
-9 c13 -5 179 -13 369 -19 190 -5 364 -13 386 -17 37 -8 34 -9 -40 -15 -44 -4
-179 -9 -300 -12 -214 -6 -382 -23 -438 -44 -26 -10 -27 -14 -27 -80 l0 -69
-132 -70 c-180 -95 -238 -114 -370 -120 l-108 -5 0 34 c0 67 -12 110 -36 125
-12 8 -53 20 -91 26 -37 6 -70 12 -72 14 -2 2 3 14 11 26 8 13 21 40 27 61 7
21 24 51 37 66 22 27 31 29 86 30 45 0 69 5 88 20 18 13 31 16 41 10 54 -34
184 17 235 92 l30 46 35 -19 c24 -13 45 -17 71 -14 34 6 37 4 47 -27 15 -46
65 -103 101 -115 27 -10 30 -9 30 8 0 11 -16 37 -35 59 -65 72 -45 86 108 76
57 -3 108 -2 116 3 30 21 23 231 -15 407 -8 39 -19 121 -24 183 -10 120 -24
165 -59 197 l-22 19 6 -26 c9 -36 -28 -73 -82 -83 -23 -3 -49 -13 -60 -20 -16
-13 -9 -14 58 -15 84 0 130 -18 93 -38 -10 -5 -41 -13 -67 -17 -26 -4 -58 -16
-70 -26 -22 -18 -21 -18 49 -12 74 6 114 -5 114 -32 0 -22 -34 -35 -92 -35
-61 0 -104 -22 -78 -40 8 -5 21 -8 28 -5 7 2 41 7 76 11 58 6 65 5 75 -14 15
-28 4 -34 -83 -40 -78 -5 -106 -15 -106 -38 0 -13 14 -14 99 -8 66 4 100 3
105 -4 10 -16 -13 -26 -78 -33 -63 -8 -104 -33 -72 -45 9 -4 40 -2 69 4 88 18
127 -25 86 -98 -19 -33 -21 -44 -11 -65 18 -40 14 -72 -10 -89 -32 -22 -36
-21 -80 27 -25 26 -42 37 -45 30 -6 -17 -33 -16 -33 1 0 7 7 27 15 42 8 16 15
36 15 45 0 21 -88 79 -119 79 -26 0 -26 -9 0 -117 11 -45 10 -54 -4 -77 l-17
-25 -33 18 c-17 10 -50 24 -72 31 -53 17 -77 38 -66 59 17 32 31 137 41 316 6
98 17 205 25 236 17 66 19 105 5 114 -5 3 -16 -8 -24 -24 -12 -23 -26 -31 -63
-39 -27 -5 -110 -22 -185 -38 -91 -18 -138 -32 -138 -40 0 -8 15 -14 37 -16
44 -4 52 -19 24 -47 -16 -16 -34 -21 -75 -21 -68 0 -114 -16 -97 -33 9 -9 43
-7 149 6 152 19 220 21 241 8 25 -16 -44 -48 -117 -55 -181 -18 -175 -32 12
-28 l143 3 17 -42 c20 -50 17 -81 -26 -226 -21 -74 -29 -119 -27 -163 3 -75
-10 -91 -79 -98 -56 -5 -112 10 -136 37 -10 11 -19 50 -25 107 -5 49 -15 103
-23 119 l-13 29 -5 -32 c-6 -41 -22 -42 -25 -2 -3 40 -19 56 -78 86 -27 14
-47 27 -45 30 3 2 49 -3 103 -12 73 -13 109 -14 141 -7 l43 10 3 -31 c4 -38
42 -62 82 -52 29 7 44 32 29 47 -7 7 -19 6 -37 -2 -40 -19 -45 -1 -7 30 19 16
31 32 28 38 -4 6 -67 8 -164 5 -143 -4 -341 11 -470 34 -45 8 -43 -13 2 -32
19 -8 35 -17 35 -20 0 -3 -14 -23 -32 -45 -59 -74 -44 -201 33 -275 34 -33 36
-44 8 -44 -31 0 -18 -23 19 -32 95 -25 95 -170 -1 -255 -45 -40 -86 -49 -126
-29 -33 18 -51 6 -30 -20 38 -46 121 -55 252 -28 42 8 95 14 119 12 l43 -3 3
-57 3 -56 -38 -13 c-88 -29 -239 -7 -319 47 -21 15 -86 39 -144 55 -102 27
-140 50 -140 84 0 16 -38 65 -51 65 -5 0 -9 -17 -9 -38 0 -78 87 -152 177
-152 50 0 123 -43 123 -73 0 -19 -6 -19 -152 -13 -345 13 -979 17 -1378 7
-233 -6 -425 -9 -426 -8 -6 5 66 500 81 559 l17 68 38 -6 c54 -9 140 12 203
50 41 25 70 35 114 38 76 5 144 40 199 101 71 79 57 116 -66 185 -61 34 -94
66 -104 99 -4 12 4 91 18 175 48 290 76 628 76 905 0 100 3 189 6 198 8 20 48
37 142 60 83 20 281 17 341 -5 l33 -13 -8 -281 c-13 -407 -11 -753 5 -884 13
-106 23 -134 52 -144 15 -5 -11 -133 -47 -231 -19 -51 -27 -93 -28 -142 l-1
-70 -41 -3 c-37 -3 -42 0 -53 27 -14 31 -36 47 -46 31 -9 -14 -98 -12 -118 3
-13 9 -18 36 -23 124 -6 93 -9 111 -21 102 -9 -8 -13 -40 -13 -110 l0 -99 -24
6 c-32 8 -45 -14 -20 -34 17 -13 14 -14 -31 -9 -27 4 -62 9 -77 13 -22 5 -28
3 -28 -10 0 -18 6 -20 155 -41 169 -24 274 -45 314 -61 l36 -14 0 -128 c0
-152 18 -207 78 -235 46 -22 56 -21 157 12 76 25 85 31 92 58 15 59 82 92 188
93 l65 0 40 73 c50 90 62 121 70 190 l7 55 -66 31 c-36 18 -71 41 -77 53 -14
26 -3 179 16 225 13 30 58 63 70 51 3 -2 -2 -39 -10 -82 -26 -135 -17 -176 47
-209 l36 -19 35 26 c19 15 38 23 41 18 10 -16 -6 -51 -30 -67 -20 -13 -24 -24
-24 -64 0 -59 -19 -115 -65 -191 -44 -73 -68 -130 -55 -130 30 0 130 198 191
382 52 154 49 255 -11 321 -37 41 -44 33 -19 -22 22 -49 16 -69 -10 -31 -21
32 -52 63 -57 57 -2 -2 5 -33 16 -68 26 -85 26 -143 -1 -170 -27 -27 -36 -17
-50 56 -10 56 -8 117 7 191 5 28 2 33 -30 52 -37 22 -44 40 -24 60 19 19 42
14 68 -13 14 -15 27 -22 33 -16 16 16 -15 88 -63 148 -49 61 -74 102 -67 109
2 2 30 -5 63 -16 206 -71 558 -98 854 -65 241 27 221 31 -180 38 -452 8 -614
25 -687 72 -13 9 -21 20 -18 25 10 16 103 30 272 41 93 6 172 11 177 12 5 1
13 -14 17 -33 4 -19 18 -43 31 -53 32 -27 115 -18 191 19 53 26 57 31 51 54
-3 14 -7 34 -8 45 -1 26 -43 47 -83 41 -18 -3 -35 -1 -38 3 -2 5 18 46 47 92
120 197 138 234 156 314 19 89 20 105 6 105 -24 0 -46 -48 -51 -112 -5 -56
-12 -74 -64 -153 -32 -49 -87 -135 -122 -189 l-62 -99 -70 2 c-70 2 -269 -12
-358 -25 l-49 -7 7 59 c18 164 43 312 112 659 86 434 96 530 65 591 -27 53
-78 87 -195 128 -112 40 -123 46 -197 97 -42 29 -93 49 -215 85 -244 72 -295
84 -363 91 l-62 6 -30 61 c-42 85 -55 167 -38 237 l13 54 75 7 c96 10 100 12
100 45 0 55 7 57 121 39 57 -9 214 -25 349 -36 135 -11 279 -27 321 -35 91
-18 128 -19 166 -4 l28 12 -30 8 c-16 4 -232 31 -480 59 -247 29 -453 55 -457
58 -11 12 -21 216 -13 286 l7 66 225 0 c128 0 253 -5 289 -12 55 -10 66 -9 88
6 14 9 26 21 26 26 0 6 -104 10 -279 10 -153 0 -299 3 -324 6 l-45 6 -7 75
c-4 41 -4 78 0 81 11 11 94 4 165 -12 84 -20 169 -20 197 -1 20 14 23 14 31
-1 8 -15 20 -14 131 14 68 17 126 33 129 37 4 4 10 84 13 178 4 95 10 243 15
330 l7 158 28 15 c15 8 42 14 59 14 16 0 30 4 30 9 0 6 -18 31 -40 56 -43 50
-51 75 -22 75 38 -1 472 -67 478 -73 13 -12 -20 -39 -86 -70 -64 -31 -64 -32
-32 -35 46 -5 131 39 160 81 27 40 28 54 5 61 -78 24 -601 87 -609 74 -9 -15
16 -74 41 -98 30 -28 32 -47 5 -55 -35 -11 -50 -48 -59 -149 -6 -54 -11 -100
-13 -102 -4 -3 -343 41 -390 52 -30 6 -74 76 -177 282 -110 220 -140 325 -151
538 -6 109 -14 174 -25 200 -9 23 -51 72 -101 120 l-85 81 -77 12 c-103 16
-177 38 -192 56 -8 9 -29 15 -57 15 -50 0 -97 21 -113 50 -9 17 -7 21 7 26 35
11 63 27 92 53 52 45 160 384 161 503 0 31 5 39 35 57 45 26 60 63 47 114 -15
57 -109 200 -183 278 -83 87 -129 109 -229 108 -41 0 -79 -2 -85 -4z"/>
<path d="M10785 7415 c-5 -2 -27 -6 -48 -10 -20 -3 -52 -19 -70 -34 -28 -25
-42 -29 -112 -33 -44 -3 -102 -13 -130 -23 -27 -10 -69 -17 -93 -16 -185 6
-311 -266 -178 -388 46 -43 35 -107 -34 -186 -53 -61 -52 -95 2 -110 20 -6 42
-15 47 -20 6 -6 18 -45 27 -88 16 -73 16 -80 1 -113 -22 -46 -21 -67 3 -89 37
-34 177 -30 230 5 28 19 -10 30 -91 27 -90 -2 -118 11 -94 46 19 28 19 72 -1
131 -10 28 -14 63 -11 87 l5 39 -42 0 c-67 0 -70 13 -17 85 25 35 48 64 51 65
3 0 29 -34 58 -75 65 -93 91 -112 131 -95 37 15 71 47 71 66 0 8 -4 12 -10 9
-6 -3 -10 5 -10 18 0 20 -4 24 -20 20 -12 -3 -20 0 -20 7 0 7 -12 3 -29 -9
-27 -20 -62 -27 -73 -16 -2 3 3 37 13 77 13 53 25 77 45 93 24 19 25 22 10 37
-24 24 -20 34 16 44 39 11 49 39 17 47 -34 9 -72 -17 -112 -76 -38 -58 -68
-77 -92 -57 -23 19 -18 40 10 40 29 0 31 6 10 26 -8 9 -15 26 -15 38 0 19 7
25 38 29 43 7 142 54 142 68 0 14 -42 10 -70 -6 -29 -17 -60 -19 -60 -5 0 26
45 50 95 50 l51 0 25 -52 c22 -49 27 -53 59 -54 19 -1 44 -3 55 -5 17 -3 20 1
20 35 0 42 19 60 29 28 10 -31 51 -62 90 -69 37 -6 49 10 26 33 -5 5 -25 52
-44 104 -27 70 -32 96 -23 101 6 4 31 26 54 48 24 23 51 41 64 41 20 0 19 -3
-14 -32 -19 -18 -38 -43 -42 -54 -5 -18 0 -22 26 -28 18 -3 33 -5 33 -4 1 2
16 22 34 45 17 23 32 49 32 57 0 10 9 16 26 16 25 0 84 48 84 68 0 13 -144 27
-175 17z"/>
<path d="M10974 7356 c-19 -19 -34 -41 -34 -50 0 -15 2 -15 26 1 16 10 45 17
76 16 75 -1 82 -19 12 -30 -55 -8 -65 -19 -58 -62 10 -61 24 -98 44 -116 19
-17 21 -16 65 24 49 45 57 48 75 26 17 -20 0 -40 -57 -67 -24 -11 -43 -24 -43
-29 0 -19 39 -8 75 21 39 31 63 34 56 9 -2 -8 -9 -32 -15 -54 -9 -32 -15 -40
-30 -37 -11 2 -46 -4 -78 -14 -59 -17 -59 -17 -81 4 -27 27 -12 51 21 33 30
-16 54 -14 50 5 -2 9 -19 22 -38 28 -29 9 -36 17 -40 46 -6 36 -26 80 -36 80
-4 0 -3 -11 0 -25 5 -18 2 -25 -9 -25 -8 0 -22 11 -31 25 -34 52 -34 22 0 -39
20 -35 36 -70 36 -78 0 -7 -18 -23 -40 -36 -56 -32 -86 -22 -113 37 l-22 46
-3 -50 c-3 -38 1 -52 14 -62 25 -18 74 -16 115 5 36 18 36 18 63 -5 30 -25
102 -32 151 -13 22 8 25 7 23 -8 -3 -14 3 -16 36 -14 28 3 36 1 31 -8 -6 -9
-36 -11 -116 -5 l-109 7 0 -26 c0 -33 -25 -44 -49 -22 -19 17 -51 22 -51 8 0
-5 10 -17 21 -28 19 -17 36 -19 135 -17 71 1 112 -2 109 -7 -4 -6 -15 -10 -25
-10 -29 0 -120 -36 -159 -63 l-35 -24 -45 35 c-47 36 -86 55 -134 67 -24 6
-27 4 -27 -19 0 -15 14 -41 33 -63 70 -79 52 -99 -25 -27 -40 37 -55 45 -76
41 -24 -4 -30 0 -52 47 -32 64 -54 69 -104 23 -20 -19 -36 -42 -36 -51 0 -14
6 -13 44 9 54 31 65 20 31 -31 -14 -20 -25 -40 -25 -45 0 -21 20 -16 44 11 14
17 33 30 42 30 14 0 15 -7 9 -37 -4 -21 -9 -50 -12 -65 -6 -34 15 -38 42 -8
26 29 40 20 37 -23 -4 -39 10 -49 27 -19 10 16 12 16 26 -2 8 -11 15 -30 15
-43 0 -18 6 -23 26 -23 34 0 194 -50 194 -61 0 -17 -45 -49 -78 -55 -29 -6
-38 -3 -54 17 l-19 24 -16 -22 c-19 -29 -33 -29 -33 -2 0 18 -4 20 -25 15 -21
-5 -25 -3 -25 14 0 45 -42 35 -111 -27 -39 -35 -74 -83 -50 -68 21 12 191 7
295 -11 l104 -17 6 -55 c4 -31 18 -99 31 -151 14 -52 24 -95 22 -95 -13 -6
-169 21 -159 27 6 5 12 12 12 17 0 25 -200 -112 -220 -151 -18 -32 8 -23 48
18 29 28 44 36 69 34 17 -1 50 8 73 20 39 21 42 21 84 5 84 -32 196 -128 196
-167 0 -18 -31 -8 -63 21 -34 29 -34 29 -52 10 -10 -11 -26 -20 -37 -20 -14 0
-18 8 -18 34 0 30 -4 34 -31 40 -27 5 -38 0 -71 -30 -32 -29 -46 -35 -68 -30
-25 4 -30 1 -39 -26 -22 -63 -78 -97 -108 -67 -7 7 -14 1 -22 -20 -7 -16 -24
-44 -37 -62 -13 -18 -22 -34 -20 -37 11 -10 99 42 182 106 92 71 153 112 167
112 4 0 7 -15 7 -34 0 -19 5 -38 10 -41 6 -4 33 1 61 10 54 18 79 10 79 -26 0
-23 19 -24 46 -4 19 15 74 21 74 8 0 -4 23 -122 51 -263 27 -140 56 -286 64
-324 l13 -69 -34 -31 c-19 -16 -34 -36 -34 -44 0 -12 4 -12 19 2 21 19 52 18
58 -1 3 -7 -6 -20 -18 -30 -48 -38 -70 -64 -64 -73 4 -6 18 -2 37 11 23 17 35
20 47 12 24 -15 25 -39 1 -88 -24 -50 -23 -61 5 -57 17 2 25 -11 51 -95 18
-54 63 -179 102 -278 73 -187 131 -367 160 -495 14 -60 17 -128 17 -335 0
-291 -11 -370 -66 -482 -34 -71 -76 -108 -146 -129 -37 -12 -264 -30 -410 -34
-7 0 -20 -15 -29 -32 -22 -44 -64 -88 -84 -88 -21 0 -40 20 -40 42 0 11 7 18
20 18 12 0 20 7 20 16 0 12 -7 15 -25 12 -21 -4 -25 -1 -25 19 0 13 -7 38 -16
54 -8 17 -13 33 -11 35 2 3 24 0 48 -5 76 -18 163 -14 192 9 33 26 43 70 24
107 -11 20 -12 34 -5 47 5 9 8 19 6 20 -1 1 -18 14 -36 29 -36 29 -62 35 -62
14 0 -7 15 -35 34 -62 45 -68 52 -92 31 -115 -26 -28 -64 -32 -146 -15 -145
30 -175 18 -124 -49 46 -61 31 -80 -103 -130 -51 -19 -104 -43 -119 -53 -48
-34 -68 -43 -96 -43 -33 0 -67 -16 -67 -31 0 -7 37 -9 103 -7 93 2 104 5 125
26 20 21 30 24 78 20 65 -6 73 -12 48 -39 -36 -41 -77 -50 -212 -48 -130 3
-188 -9 -164 -33 8 -8 33 -8 84 -1 45 6 82 7 98 1 41 -15 4 -28 -83 -28 -76 0
-137 -16 -152 -40 -5 -8 19 -9 92 -4 109 7 166 -4 183 -36 6 -10 10 -21 10
-24 0 -3 -56 -6 -125 -6 -93 0 -134 -4 -155 -15 -17 -9 -30 -20 -30 -25 0 -11
17 -12 153 -10 61 1 97 -2 97 -9 0 -13 -64 -31 -115 -31 -22 -1 -60 -5 -85
-10 -25 -5 -48 -5 -52 -2 -15 15 -27 193 -31 450 l-3 272 23 0 c35 0 88 25
146 67 28 21 83 54 121 73 62 31 74 42 104 92 32 57 63 77 95 65 8 -3 21 9 32
29 19 36 59 65 152 113 34 16 70 42 82 57 21 27 44 94 35 103 -2 3 -26 -18
-53 -46 -53 -55 -91 -70 -136 -53 -36 14 -47 2 -17 -17 12 -9 22 -22 22 -29 0
-22 -47 -28 -75 -10 -13 9 -35 16 -47 16 -21 -1 -21 -3 11 -29 42 -35 25 -52
-22 -22 -54 35 -77 45 -85 37 -7 -8 22 -37 68 -67 47 -32 11 -31 -49 0 -67 35
-113 42 -90 15 7 -8 34 -26 60 -40 57 -28 66 -40 41 -53 -10 -6 -49 -41 -86
-80 -55 -56 -89 -80 -182 -128 l-113 -58 -23 23 c-20 19 -24 35 -27 107 -3 92
0 98 49 70 38 -22 67 -19 74 8 11 40 7 46 -53 76 -49 25 -71 46 -71 67 0 12
34 -1 104 -41 44 -25 81 -43 83 -41 11 11 -24 50 -70 79 -36 22 -47 33 -35 35
10 2 31 -6 48 -18 30 -21 64 -24 63 -5 0 6 -12 16 -25 22 -14 7 -31 20 -38 28
-21 25 8 19 46 -10 36 -27 74 -33 74 -11 0 8 -16 24 -36 35 -73 43 -27 76 166
116 113 24 220 66 220 86 0 8 -47 -2 -109 -25 -46 -17 -138 -23 -111 -7 8 5
47 19 85 31 82 27 156 62 174 84 20 24 3 20 -122 -29 -64 -25 -120 -45 -126
-45 -16 0 -14 16 8 58 42 81 112 122 269 157 58 14 106 23 107 22 0 -1 9 -19
18 -41 20 -43 23 -34 -46 -114 -61 -69 -44 -90 30 -36 39 30 68 100 59 147 -7
36 -47 84 -81 97 -14 5 -38 -1 -76 -20 -62 -32 -167 -65 -176 -56 -11 11 29
45 91 80 34 19 70 44 81 57 l20 22 -40 -7 c-22 -4 -63 -21 -91 -37 -73 -41
-84 -39 -84 15 0 36 4 46 20 51 10 3 56 33 102 65 58 42 89 58 103 54 14 -3
39 7 72 29 28 19 86 49 129 67 201 82 229 100 160 100 -19 0 -38 5 -41 10 -3
6 2 10 12 10 20 0 43 18 43 33 0 12 -32 2 -120 -38 -41 -18 -89 -35 -107 -39
-30 -5 -32 -3 -52 47 -11 29 -25 71 -30 95 l-9 42 48 0 c48 0 78 18 65 40 -9
15 -57 12 -79 -5 -11 -8 -32 -15 -48 -15 -23 0 -28 -4 -28 -26 0 -14 14 -60
31 -102 20 -50 29 -87 25 -104 -6 -33 4 -35 59 -12 20 8 43 14 51 12 14 -3
-373 -203 -414 -214 -22 -5 -23 -4 -12 15 6 12 42 44 79 71 38 28 72 57 75 66
12 31 6 35 -20 15 -24 -19 -74 -29 -74 -16 0 3 10 22 23 43 55 88 101 230 151
467 62 290 64 296 106 340 41 44 54 73 41 93 -6 10 -14 5 -30 -21 -32 -52 -94
-79 -200 -85 l-88 -5 -8 39 c-12 66 31 91 223 130 12 2 22 9 22 14 0 23 -89
98 -135 113 -61 21 -154 22 -202 2 -34 -14 -109 -83 -100 -91 2 -3 40 12 83
33 98 47 193 56 234 24 l25 -19 -30 -8 c-17 -4 -59 -20 -95 -36 -69 -31 -107
-38 -152 -25 -22 6 -28 4 -28 -8 0 -9 7 -18 15 -21 8 -4 15 -12 15 -20 0 -10
-8 -12 -30 -7 -27 5 -30 3 -30 -19 0 -14 -9 -60 -20 -103 -11 -43 -20 -92 -20
-109 0 -25 -16 -47 -89 -122 -49 -50 -103 -96 -120 -102 -17 -6 -31 -8 -31 -5
0 3 26 35 58 72 73 83 92 110 92 134 0 32 -23 14 -85 -69 -57 -74 -125 -128
-141 -111 -8 8 24 56 97 145 68 83 40 81 -43 -3 -47 -47 -72 -65 -92 -65 -40
0 -32 22 29 88 68 74 72 93 6 28 -48 -47 -51 -49 -80 -36 -40 16 -61 7 -61
-25 0 -54 -102 -119 -185 -119 -43 0 -70 11 -199 79 -82 43 -173 97 -201 120
-72 59 -95 73 -138 80 -64 12 -130 111 -152 228 -5 27 -12 37 -26 37 -10 0
-39 10 -64 22 -24 12 -48 19 -52 15 -3 -4 18 -32 48 -62 39 -39 60 -70 73
-109 22 -64 84 -150 111 -154 54 -8 71 -17 147 -79 97 -79 161 -119 278 -175
72 -34 98 -41 168 -46 80 -5 84 -4 112 23 l29 28 68 -28 c63 -27 143 -90 143
-112 0 -6 -21 -24 -47 -41 -27 -18 -76 -52 -110 -76 -108 -77 -182 -85 -301
-32 -43 18 -104 41 -137 51 -89 25 -128 49 -160 95 -20 29 -46 49 -80 65 -53
23 -78 51 -162 175 -84 126 -172 194 -241 188 l-36 -3 40 -26 c50 -34 118
-100 274 -268 244 -262 429 -361 658 -349 105 5 126 15 229 109 43 39 91 77
106 85 26 14 31 13 63 -7 45 -27 92 -91 100 -136 3 -18 1 -54 -6 -79 -14 -51
-21 -54 -255 -151 -335 -139 -538 -185 -820 -188 l-190 -1 -72 -38 c-95 -50
-155 -104 -187 -168 -14 -28 -24 -53 -23 -54 2 -2 21 1 43 7 37 11 80 10 349
-7 93 -6 106 -4 190 24 90 30 230 50 395 55 66 2 76 0 85 -18 8 -15 24 -21 60
-25 92 -10 98 -32 23 -77 -143 -87 -338 -145 -597 -179 l-114 -15 -30 37 c-38
45 -75 61 -163 70 -40 3 -92 17 -122 31 -45 20 -59 23 -83 14 -23 -8 -39 -7
-70 6 -32 12 -63 15 -147 10 -169 -8 -232 -43 -160 -87 18 -11 35 -30 38 -42
6 -22 12 -23 127 -29 93 -4 128 -10 149 -23 21 -14 24 -20 13 -26 -23 -12
-247 -29 -524 -40 -143 -6 -528 -22 -855 -36 -678 -30 -1289 -36 -1715 -16
-148 7 -383 17 -522 22 -146 6 -281 16 -323 25 -91 19 -185 21 -205 5 -9 -7
-14 -14 -12 -16 11 -11 535 -56 882 -76 339 -19 1418 -17 1960 5 248 9 601 22
785 27 323 9 491 24 621 55 l61 14 -7 -57 c-10 -78 -8 -313 5 -523 6 -108 7
-210 1 -269 -5 -52 -7 -97 -5 -99 2 -2 40 -3 84 -3 67 0 91 5 136 27 30 15 59
36 65 47 10 19 9 20 -40 13 -29 -4 -81 -2 -122 5 l-70 12 8 42 c10 53 10 356
-1 608 l-9 197 -78 30 c-116 44 -176 61 -251 68 -63 5 -68 8 -68 30 0 17 -8
26 -27 34 -59 21 -59 21 -28 30 48 15 225 11 306 -5 41 -9 135 -34 211 -57
l136 -41 14 -47 c19 -66 15 -270 -7 -426 -21 -141 -27 -406 -10 -440 7 -15 11
-1 15 60 l5 80 43 3 c41 3 45 6 63 47 18 41 19 62 15 267 -4 217 -5 224 -30
268 -26 45 -33 103 -17 129 8 12 17 12 63 -2 61 -19 74 -17 243 51 55 22 156
55 224 73 139 36 205 73 236 131 26 48 14 61 -76 83 -38 10 -72 21 -75 26 -3
5 -1 9 3 9 5 0 63 7 128 15 226 29 397 80 501 150 l52 34 6 -31 c21 -105 -2
-208 -82 -360 -52 -101 -60 -112 -95 -123 -21 -7 -70 -40 -110 -72 -77 -64
-103 -80 -148 -93 -28 -8 -29 -7 -29 23 0 18 -7 57 -15 87 -8 30 -15 83 -15
116 0 41 -5 66 -14 73 -12 10 -17 6 -25 -26 -16 -56 -14 -102 14 -257 15 -89
33 -272 50 -497 25 -356 42 -511 72 -666 l16 -82 24 16 c17 12 56 18 131 21
104 4 108 5 166 43 55 37 117 52 130 31 2 -4 -30 -25 -72 -47 -73 -37 -172
-121 -172 -145 0 -14 49 15 160 95 100 72 153 105 169 105 6 0 11 -14 11 -31
0 -20 4 -29 13 -26 9 3 12 46 13 168 1 187 13 240 35 146 10 -46 10 -83 1
-180 -7 -67 -12 -146 -12 -175 0 -50 -1 -52 -20 -40 -14 9 -25 10 -34 3 -8 -6
-58 -40 -112 -77 -55 -37 -106 -73 -115 -80 -20 -16 -69 -87 -69 -100 0 -22
50 9 116 72 66 63 177 130 213 130 9 0 22 -9 28 -20 11 -17 5 -24 -75 -76
-126 -83 -162 -113 -194 -163 -15 -25 -28 -49 -28 -53 0 -17 59 23 147 101
100 88 170 131 214 131 36 0 37 16 4 50 -24 25 -24 26 -26 250 -1 181 1 233
14 265 l15 40 13 -30 c10 -22 14 -88 14 -257 0 -168 3 -230 13 -239 10 -10 12
35 12 226 0 236 7 289 35 287 22 -1 36 -73 25 -131 -6 -31 -14 -132 -17 -226
-5 -188 -16 -250 -39 -241 -29 11 -110 -38 -185 -113 -81 -81 -143 -187 -154
-266 l-6 -40 53 60 c89 101 141 149 194 177 59 32 134 47 134 28 0 -17 -71
-84 -163 -153 -87 -66 -117 -112 -117 -182 0 -57 3 -55 118 49 102 92 136 114
196 125 52 10 157 -7 163 -25 5 -16 -115 -126 -172 -157 -57 -32 -55 -32 -55
-8 0 26 -10 51 -21 51 -5 0 -9 -21 -9 -47 0 -68 37 -137 110 -208 57 -56 61
-58 54 -30 -9 38 -25 69 -65 122 -17 22 -28 46 -25 51 19 32 205 72 331 72 46
0 55 -4 90 -40 41 -42 69 -51 79 -24 9 23 9 23 -34 40 -26 10 -40 23 -40 34 0
25 91 34 104 11 5 -9 48 -55 97 -102 49 -48 89 -91 89 -97 0 -9 -23 -22 -40
-22 -5 0 -30 18 -55 40 -25 22 -50 40 -56 40 -12 0 -12 -17 1 -25 16 -10 11
-25 -9 -25 -10 0 -24 7 -31 15 -7 8 -16 15 -21 15 -16 0 -9 -23 13 -47 39 -41
8 -46 -47 -8 -79 57 -119 43 -45 -15 22 -17 40 -38 40 -46 0 -25 -41 -15 -68
17 -48 57 -63 70 -72 64 -19 -12 -10 -36 31 -80 22 -24 39 -51 37 -60 -2 -13
-14 -9 -58 20 -51 33 -100 46 -100 27 0 -12 30 -36 63 -50 15 -6 30 -19 33
-27 7 -17 -27 -77 -69 -122 -25 -26 -28 -35 -18 -47 13 -16 4 -43 -22 -64 -11
-10 -22 -6 -52 18 -21 16 -46 30 -56 30 -33 0 -22 -24 29 -59 31 -21 42 -54
23 -65 -5 -3 -32 10 -60 29 -48 33 -91 45 -91 26 0 -11 25 -37 48 -50 30 -17
5 -23 -27 -7 -41 22 -53 20 -49 -6 2 -14 18 -29 44 -42 56 -28 74 -45 74 -67
0 -18 -15 -24 -48 -20 -7 1 -34 18 -58 37 -50 37 -102 48 -85 16 5 -9 32 -30
60 -47 39 -22 51 -35 51 -53 0 -29 -20 -24 -88 19 -56 36 -83 38 -79 7 2 -19
-4 -24 -33 -28 l-34 -5 27 -18 c65 -42 17 -47 -149 -15 -63 12 -116 19 -120
15 -28 -27 56 -71 167 -87 69 -10 80 -9 159 15 50 16 128 30 190 35 58 5 141
14 185 19 61 8 140 7 328 -6 264 -18 268 -19 232 -67 -22 -30 -18 -54 14 -87
75 -74 202 3 189 115 l-4 35 58 -6 c64 -7 108 12 108 47 0 25 -63 43 -118 34
-35 -5 -42 -3 -55 17 -9 14 -20 68 -25 125 -11 104 -29 157 -57 168 -13 5 -15
1 -10 -15 4 -12 10 -69 14 -128 4 -64 13 -119 23 -138 16 -32 15 -33 -17 -70
l-33 -38 -12 30 c-22 55 -39 159 -55 335 -18 195 -36 299 -65 365 -21 50 -92
131 -122 141 -17 5 -18 7 -4 17 9 7 22 31 30 54 31 89 38 203 34 600 -3 351
-1 394 13 408 15 16 17 9 24 -91 4 -59 4 -277 0 -483 -7 -393 -1 -490 32 -539
l18 -27 6 50 c6 48 1 158 -21 503 -10 150 0 366 19 385 4 4 15 -1 25 -12 16
-18 18 -55 22 -418 3 -219 10 -436 15 -483 12 -100 30 -180 40 -180 3 0 12 14
19 30 10 23 10 47 2 103 -12 78 -7 117 13 117 7 0 15 -9 18 -21 9 -33 32 -17
29 19 -4 41 12 41 45 2 13 -16 30 -30 36 -30 9 0 12 157 12 625 0 430 -3 625
-10 625 -32 0 -37 -68 -34 -543 2 -409 0 -476 -13 -501 l-15 -30 -9 25 c-5 13
-8 141 -7 284 3 254 -9 493 -26 538 -8 20 -10 18 -17 -18 -13 -57 -10 -380 4
-577 11 -165 4 -319 -18 -357 -21 -38 -32 47 -36 282 -2 131 -6 242 -9 247 -3
5 -6 111 -6 237 0 209 -2 230 -19 248 -13 14 -20 38 -22 80 l-3 60 -50 8 c-27
4 -127 5 -222 1 -121 -4 -182 -3 -207 6 -49 16 -45 30 7 30 61 0 144 44 184
98 64 85 92 249 93 539 0 128 1 133 23 148 18 11 26 31 36 83 24 132 179 724
198 755 3 5 0 8 -7 5 -26 -8 -50 -54 -74 -143 -13 -49 -51 -177 -85 -284 -45
-142 -61 -209 -61 -250 0 -92 -43 -115 -54 -28 -15 109 -56 314 -76 374 -11
34 -56 137 -99 230 -96 204 -108 241 -126 413 -9 74 -26 173 -40 220 -18 63
-24 108 -23 175 0 68 -6 113 -26 185 -14 52 -39 154 -55 225 -36 161 -55 209
-141 360 -38 66 -81 146 -94 177 l-26 58 30 21 c42 32 64 83 51 120 -9 25 -7
30 12 40 27 14 37 28 37 52 0 10 26 43 58 75 71 69 79 95 50 178 l-20 60 41
76 c48 88 53 137 19 204 -46 92 -180 214 -236 214 -14 0 -38 -14 -58 -34z"/>
<path d="M10840 7120 c31 -60 85 -105 73 -61 -6 24 -71 101 -84 101 -5 0 0
-18 11 -40z"/>
<path d="M10451 6934 c-26 -33 -26 -44 -2 -44 15 0 35 11 81 47 7 6 -23 23
-42 23 -9 0 -26 -12 -37 -26z"/>
<path d="M4378 6909 c-38 -22 -11 -49 50 -49 20 0 23 4 20 28 -2 20 -9 28 -28
29 -14 2 -33 -2 -42 -8z"/>
<path d="M4317 6794 c-18 -19 51 -98 94 -109 23 -6 29 -1 53 39 42 72 39 76
-57 76 -46 0 -86 -3 -90 -6z"/>
<path d="M10490 6629 c-10 -13 -36 -24 -75 -32 -76 -15 -84 -40 -33 -91 50
-50 122 -59 172 -23 21 15 24 72 8 132 -10 38 -49 45 -72 14z"/>
<path d="M10497 6288 c26 -49 23 -151 -6 -207 -13 -24 -62 -85 -110 -136 -78
-83 -94 -106 -169 -256 -100 -199 -126 -289 -117 -398 l7 -73 41 6 c23 4 61
18 83 31 61 36 242 230 270 290 43 91 26 94 -32 5 -60 -90 -107 -145 -139
-162 -19 -11 -19 -10 -2 13 9 13 54 84 99 157 46 74 104 167 130 208 26 41 44
74 39 74 -23 0 -114 -122 -191 -255 -94 -163 -150 -229 -229 -270 l-53 -26 7
33 c40 185 137 378 296 588 98 130 124 178 140 250 15 68 -3 145 -34 154 -44
12 -49 8 -30 -26z"/>
<path d="M3681 5991 c-8 -5 -11 -16 -8 -24 4 -11 21 -15 65 -16 33 0 88 -7
122 -16 34 -9 78 -15 99 -13 l36 4 -55 27 c-75 36 -227 58 -259 38z"/>
<path d="M4489 5943 c5 -10 28 -42 50 -72 23 -30 41 -60 41 -66 0 -7 -56 8
-139 36 -130 44 -274 76 -301 67 -7 -2 80 -34 193 -71 113 -38 251 -91 308
-119 69 -35 104 -48 107 -40 2 7 30 48 63 91 50 67 85 141 66 141 -4 0 -31
-33 -60 -72 -30 -40 -66 -83 -80 -96 -24 -22 -26 -23 -55 -8 -34 17 -58 48
-92 116 -25 51 -77 110 -97 110 -10 0 -11 -5 -4 -17z"/>
<path d="M3802 5709 c4 -13 514 -24 608 -13 l65 8 -65 7 c-113 12 -612 10
-608 -2z"/>
<path d="M4520 5691 c0 -6 11 -11 25 -11 14 0 25 -4 25 -9 0 -11 -50 -21 -102
-21 -43 0 -108 -23 -108 -39 0 -16 97 -42 162 -43 74 -1 121 19 143 62 22 43
20 47 -36 54 -29 4 -65 10 -80 13 -18 3 -29 1 -29 -6z"/>
<path d="M4683 5575 c-33 -14 -73 -67 -73 -97 0 -29 48 -58 96 -58 26 0 44 5
44 11 0 6 20 31 45 56 25 24 45 48 45 54 0 16 -64 49 -95 49 -16 -1 -45 -7
-62 -15z"/>
<path d="M3750 5556 c0 -31 30 -164 50 -221 l20 -60 -5 80 c-3 44 -14 108 -26
142 -20 61 -39 90 -39 59z"/>
<path d="M9005 5460 c-10 -16 15 -40 41 -40 30 0 31 14 2 34 -26 19 -35 20
-43 6z"/>
<path d="M9949 5289 c-40 -43 -39 -87 3 -135 34 -38 91 -69 109 -59 14 9 1 25
-22 25 -29 0 -23 16 11 30 55 23 55 37 0 36 -37 -1 -55 4 -70 19 -19 19 -19
22 -4 44 13 18 24 22 50 19 38 -5 40 -1 18 30 -22 32 -60 28 -95 -9z"/>
<path d="M3942 5095 c27 -25 62 -42 134 -64 104 -33 134 -37 134 -21 0 19 -62
49 -175 85 -60 19 -114 35 -120 35 -5 0 7 -16 27 -35z"/>
<path d="M4530 5050 c0 -21 43 -30 143 -30 88 0 106 -3 120 -18 16 -17 14 -19
-33 -31 -58 -15 -57 -14 -88 -106 -13 -38 -28 -75 -34 -82 -13 -16 -156 -63
-191 -63 -25 0 -27 3 -27 44 0 30 -7 51 -21 67 l-20 24 5 -125 c6 -113 2 -166
-20 -269 -7 -32 -6 -33 15 -22 28 15 37 40 50 131 5 40 14 77 19 82 7 7 43 2
104 -12 99 -23 149 -22 179 6 30 27 24 51 -18 64 -54 17 -58 24 -33 57 11 16
27 52 34 79 9 38 20 54 47 71 71 46 89 64 89 92 0 20 -7 31 -25 39 -32 15
-295 16 -295 2z"/>
<path d="M3987 5001 c13 -11 47 -22 75 -26 29 -4 63 -11 76 -16 26 -10 29 2 5
23 -27 23 -80 38 -132 38 l-46 -1 22 -18z"/>
<path d="M5887 4803 c-18 -17 -5 -73 26 -114 66 -86 70 -116 16 -104 l-30 7 7
-66 c7 -64 6 -66 -20 -76 -42 -15 -106 -12 -152 9 -23 10 -44 23 -47 28 -8 12
9 93 21 105 6 6 41 13 77 15 65 3 105 15 105 32 0 5 -19 8 -42 7 -24 0 -73 3
-110 7 l-68 8 0 -42 c0 -29 -10 -60 -30 -96 -37 -64 -40 -108 -9 -100 12 3 46
1 77 -4 93 -15 165 -13 200 5 27 14 32 22 32 51 0 18 4 36 9 39 5 3 26 -18 47
-47 49 -65 89 -75 129 -30 13 15 25 36 25 46 0 27 -28 20 -44 -12 -23 -43 -42
-45 -68 -8 -19 26 -23 45 -23 104 0 71 0 72 -35 95 -19 13 -43 39 -53 58 l-17
35 47 10 c55 12 76 22 68 36 -7 10 -128 13 -138 2z"/>
<path d="M6210 4721 c-39 -12 -90 -41 -90 -51 0 -5 4 -12 10 -15 8 -5 21 1 94
42 27 16 39 3 27 -30 -9 -23 -15 -26 -48 -24 -45 2 -54 -22 -13 -33 51 -14 93
21 106 88 6 31 5 32 -27 31 -19 0 -45 -4 -59 -8z"/>
<path d="M11100 4691 c-14 -27 -13 -31 10 -31 15 0 20 7 20 25 0 30 -15 33
-30 6z"/>
<path d="M10926 4648 c8 -53 25 -90 43 -96 11 -4 12 3 7 29 -3 19 -9 51 -12
72 -5 27 -12 37 -25 37 -17 0 -18 -5 -13 -42z"/>
<path d="M6725 4502 c-28 -15 -109 -20 -185 -10 -22 3 -27 -4 -50 -66 -25 -68
-57 -106 -67 -78 -10 27 -57 74 -94 92 -88 45 -182 11 -195 -71 -6 -33 -10
-39 -31 -39 -37 0 -63 -18 -79 -55 -20 -49 -18 -92 5 -98 36 -9 77 19 110 77
l32 56 119 0 c65 0 130 -4 144 -10 31 -11 44 5 71 85 9 27 20 54 25 60 5 6 57
10 124 10 122 0 126 2 108 47 -7 15 -9 15 -37 0z"/>
<path d="M4516 4455 c-67 -24 -62 -32 16 -29 40 2 116 5 169 7 132 5 158 22
47 30 -123 10 -188 8 -232 -8z"/>
<path d="M1430 4411 c0 -5 6 -14 14 -21 40 -33 78 -228 96 -498 17 -265 12
-525 -21 -949 -13 -174 -16 -166 68 -219 74 -48 175 -79 353 -108 181 -30 731
-98 737 -92 10 10 -45 35 -87 41 -25 4 -90 15 -145 26 -55 10 -239 39 -410 64
-170 25 -327 49 -347 54 -70 16 -134 119 -126 202 3 27 8 52 12 56 4 4 32 2
64 -5 277 -59 948 -172 1021 -172 13 0 14 330 1 575 -5 94 -14 292 -20 440
-12 300 -21 380 -51 443 l-21 42 -147 0 c-171 0 -300 15 -656 75 -325 54 -335
56 -335 46z"/>
<path d="M4770 4398 c-103 -9 -299 -50 -327 -68 -15 -9 -13 -10 12 -5 90 16
383 47 465 50 95 2 130 9 130 26 0 11 -151 9 -280 -3z"/>
<path d="M4955 4360 c-89 -8 -347 -49 -354 -56 -7 -7 46 -4 214 11 88 8 184
15 213 15 45 0 53 3 50 18 -4 20 -18 22 -123 12z"/>
<path d="M5832 4330 c-50 -23 -58 -37 -42 -85 16 -49 46 -47 110 10 54 48 61
51 90 35 27 -14 35 5 16 35 -14 22 -24 25 -74 25 -35 0 -74 -8 -100 -20z"/>
<path d="M6852 4305 c-30 -25 -56 -78 -45 -89 17 -16 45 -2 69 34 15 22 30 40
34 40 4 0 19 -9 33 -20 25 -20 67 -27 67 -12 0 4 -10 12 -22 17 -13 6 -27 20
-33 33 -14 31 -64 30 -103 -3z"/>
<path d="M3986 4311 c-6 -9 36 -31 59 -31 23 0 17 16 -10 28 -31 14 -42 15
-49 3z"/>
<path d="M11170 4309 c-26 -5 -53 -18 -63 -30 -10 -12 -16 -23 -14 -25 2 -3
42 5 114 21 12 3 27 14 33 25 12 23 6 24 -70 9z"/>
<path d="M6210 4251 c-16 -31 -12 -51 19 -82 55 -55 153 -29 137 36 -14 55
-132 89 -156 46z"/>
<path d="M11195 4236 c-36 -10 -40 -15 -43 -48 -2 -20 3 -56 11 -80 14 -39 13
-45 -2 -68 -22 -33 -43 -81 -37 -87 11 -12 48 11 62 39 18 35 21 127 4 158
-15 28 -5 40 35 40 66 0 88 26 40 48 -14 7 -27 12 -28 11 -1 0 -20 -6 -42 -13z"/>
<path d="M8120 4211 c0 -17 36 -31 82 -31 24 0 88 -7 143 -15 137 -20 324 -19
400 2 56 15 122 19 190 11 22 -2 30 2 33 15 4 21 -29 22 -357 6 -207 -9 -413
-2 -473 17 -10 3 -18 1 -18 -5z"/>
<path d="M7013 4203 c-54 -10 -2 -81 81 -109 45 -15 48 -15 62 2 20 26 35 64
29 74 -4 7 -139 42 -147 39 -2 -1 -13 -4 -25 -6z"/>
<path d="M7250 4181 c-17 -33 -11 -48 21 -55 47 -9 49 -8 49 18 0 14 -10 32
-22 40 -29 21 -35 20 -48 -3z"/>
<path d="M7785 4193 c-11 -3 -69 -33 -130 -67 -118 -66 -116 -65 -272 -56 -46
3 -68 -1 -88 -14 -44 -29 -14 -36 112 -29 78 4 121 2 141 -6 23 -10 46 -9 117
4 105 20 325 23 410 5 33 -7 89 -27 124 -46 49 -26 67 -31 82 -23 25 13 25 14
-14 37 -57 36 -174 61 -361 77 -99 9 -182 18 -184 20 -2 2 23 17 57 34 33 17
65 40 71 51 10 18 8 20 -17 19 -15 -1 -37 -4 -48 -6z"/>
<path d="M6932 4158 c2 -6 10 -14 16 -16 7 -2 10 2 6 12 -7 18 -28 22 -22 4z"/>
<path d="M5694 4132 c-68 -32 -65 -44 8 -36 98 12 426 9 492 -4 68 -14 80 -10
39 11 -48 25 -141 38 -323 43 -159 5 -179 3 -216 -14z"/>
<path d="M4075 4109 c-4 -6 -5 -11 -4 -13 12 -7 428 7 423 15 -8 13 -411 12
-419 -2z"/>
<path d="M4808 4104 c-12 -12 -26 -12 -91 -2 -56 8 -82 9 -99 0 -21 -10 -20
-11 16 -11 21 -1 70 -10 107 -21 57 -17 72 -19 89 -8 23 15 27 43 6 51 -7 3
-20 -1 -28 -9z"/>
<path d="M5181 4087 c-14 -6 -27 -19 -29 -27 -4 -12 -1 -12 19 2 35 23 82 30
113 18 23 -8 26 -13 16 -25 -22 -27 -118 -55 -185 -55 -49 0 -65 -3 -65 -14 0
-26 35 -55 90 -73 l55 -18 35 39 c33 37 34 39 10 32 -14 -4 -36 -10 -50 -12
-25 -5 -25 -5 5 20 16 14 42 31 58 37 23 10 31 9 47 -6 20 -18 21 -18 48 2 15
11 28 31 30 45 3 21 -3 28 -29 37 -42 15 -138 14 -168 -2z"/>
<path d="M6509 4093 c-24 -6 -48 -121 -28 -134 34 -21 129 -31 236 -26 148 8
153 11 153 91 l0 63 -127 6 c-137 7 -208 7 -234 0z"/>
<path d="M3977 4053 c-4 -3 -7 -17 -7 -30 0 -18 9 -28 38 -40 93 -39 135 -44
447 -53 171 -5 321 -12 335 -15 14 -4 41 1 63 10 32 13 37 20 37 48 0 35 -15
57 -38 57 -11 0 -13 -9 -9 -35 l6 -35 -47 0 c-186 2 -624 21 -699 31 -93 12
-93 12 -93 40 0 27 -17 39 -33 22z"/>
<path d="M5631 4046 c14 -15 129 -28 321 -36 237 -10 273 -19 183 -46 -81 -24
-259 -22 -430 5 -71 11 -131 19 -133 17 -2 -2 11 -20 29 -41 38 -43 84 -68
158 -85 78 -18 303 -8 405 19 44 12 81 23 84 25 2 3 1 31 -3 64 l-7 59 -141 7
c-300 14 -472 18 -466 12z"/>
<path d="M2670 3979 c1 -24 8 -114 16 -199 21 -207 31 -943 14 -1023 -6 -31
-15 -59 -20 -62 -18 -11 -586 96 -906 172 -119 28 -165 26 -172 -7 -2 -12 94
-33 515 -108 285 -51 535 -96 555 -99 35 -5 37 -8 31 -32 -12 -45 -9 -83 9
-94 9 -6 20 -8 24 -4 13 13 17 796 5 968 -7 90 -14 172 -17 182 -4 13 4 21 30
32 42 18 48 37 9 29 -51 -9 -56 3 -54 133 1 108 0 121 -19 138 -20 18 -20 18
-20 -26z"/>
<path d="M7233 3973 c-16 -34 -16 -43 1 -43 7 0 39 -17 70 -38 l57 -39 182 -7
c100 -4 234 -10 297 -15 152 -10 246 0 311 36 28 15 55 36 61 46 9 18 7 19
-44 13 -29 -3 -179 -8 -333 -12 -229 -5 -299 -3 -383 10 -140 21 -182 35 -182
58 0 27 -23 22 -37 -9z"/>
<path d="M4012 3932 c8 -41 214 -75 463 -76 167 -1 196 1 233 18 23 10 42 22
42 25 0 3 -70 5 -157 3 -176 -4 -426 11 -521 31 -55 12 -62 12 -60 -1z"/>
<path d="M9768 3753 c-35 -4 -38 -7 -38 -34 0 -24 4 -29 18 -25 9 3 36 10 60
16 23 6 42 13 42 15 0 7 -32 35 -38 33 -4 -1 -24 -3 -44 -5z"/>
<path d="M9960 3740 c0 -13 7 -20 20 -20 13 0 20 7 20 20 0 13 -7 20 -20 20
-13 0 -20 -7 -20 -20z"/>
<path d="M9862 3728 c2 -17 11 -24 31 -26 18 -2 27 1 27 10 0 20 -21 38 -43
38 -13 0 -18 -6 -15 -22z"/>
<path d="M9470 3676 c0 -28 12 -46 31 -46 14 0 19 7 19 30 0 25 -4 30 -25 30
-15 0 -25 -6 -25 -14z"/>
<path d="M9560 3599 c-32 -20 -33 -22 -15 -29 11 -4 51 -2 89 4 66 11 67 12
49 29 -26 23 -81 21 -123 -4z"/>
<path d="M8805 3578 c-33 -11 -84 -20 -112 -21 -46 -1 -53 -4 -53 -22 0 -32
20 -95 30 -95 6 0 13 -1 18 -2 4 -2 9 17 12 42 4 40 8 45 33 48 25 3 27 1 27
-35 0 -22 5 -44 12 -51 9 -9 18 0 37 40 34 69 53 79 85 49 35 -33 58 -22 46
20 -16 55 -38 59 -135 27z"/>
<path d="M4653 3583 c-30 -11 -9 -23 42 -23 56 0 73 13 33 24 -27 7 -58 7 -75
-1z"/>
<path d="M4833 3573 c-23 -4 -22 -10 13 -62 2 -2 15 6 30 18 45 35 86 25 96
-24 5 -27 32 -25 36 3 5 37 45 29 65 -13 18 -38 37 -46 37 -15 0 14 9 21 35
26 24 4 35 12 35 23 0 15 -22 20 -147 34 -149 17 -160 18 -200 10z"/>
<path d="M5257 3544 c-13 -14 -7 -89 13 -159 11 -38 20 -80 20 -92 0 -33 27
-28 45 8 18 34 41 198 32 223 -9 24 -26 19 -38 -11 -10 -28 -24 -23 -31 12 -3
20 -28 31 -41 19z"/>
<path d="M8151 3534 c-69 -21 -341 -34 -751 -34 -206 0 -505 -5 -664 -11 -298
-11 -296 -11 -309 26 -8 20 -18 -3 -38 -91 -15 -65 -22 -139 -26 -275 -7 -226
1 -322 25 -317 14 3 18 18 20 78 2 50 7 79 17 86 12 9 12 16 0 50 -20 55 -18
123 3 165 18 35 18 37 0 59 -22 27 -14 39 34 54 46 16 48 36 4 36 -36 0 -36 0
-36 45 l0 45 43 1 c23 1 124 2 225 3 l183 1 -6 -24 c-4 -14 1 -33 11 -49 l17
-26 14 46 c17 60 36 67 62 22 27 -45 51 -45 51 1 0 33 2 35 35 35 30 0 37 -4
49 -35 20 -48 51 -49 42 -1 -6 29 -4 34 16 39 28 7 82 -4 125 -26 30 -16 33
-16 42 1 9 17 38 19 348 30 353 12 593 30 593 43 0 14 -43 39 -65 38 -11 -1
-40 -7 -64 -15z"/>
<path d="M9583 3529 c-58 -16 -35 -39 38 -39 27 0 42 5 46 15 3 9 4 17 2 19
-12 10 -58 12 -86 5z"/>
<path d="M8332 3504 c1 -9 9 -19 16 -22 9 -3 13 2 10 14 -1 9 -9 19 -16 22 -9
3 -13 -2 -10 -14z"/>
<path d="M10810 3458 c-25 -17 -101 -73 -170 -123 -69 -50 -139 -100 -156
-110 -28 -16 -63 -79 -51 -91 9 -9 35 8 45 32 15 31 51 32 81 0 24 -26 78 -52
87 -43 13 13 -9 45 -41 63 -39 21 -50 40 -34 60 20 24 60 16 100 -21 22 -19
46 -35 54 -35 28 0 14 35 -25 62 -42 29 -52 61 -24 72 22 9 52 -1 90 -30 39
-29 89 -43 82 -23 -4 13 -32 34 -84 65 -16 9 -17 15 -7 37 16 34 43 34 73 2
13 -14 32 -25 42 -25 24 0 23 4 -7 34 -14 14 -25 34 -25 44 0 10 11 24 25 30
14 6 25 16 25 22 0 19 -35 9 -80 -22z"/>
<path d="M9527 3387 c-32 -457 -39 -659 -33 -932 6 -247 9 -292 23 -307 9 -10
20 -18 25 -18 4 0 8 281 8 624 0 367 4 627 9 630 5 4 37 9 71 13 40 4 64 11
67 21 10 23 -18 32 -84 25 -53 -5 -63 -3 -63 10 0 9 -4 18 -9 21 -4 3 -11 -36
-14 -87z"/>
<path d="M5767 3460 c-32 -4 -64 -13 -70 -20 -10 -10 6 -11 76 -6 82 6 89 5
110 -16 22 -23 23 -23 57 -6 27 14 60 18 143 18 l107 0 0 -32 c0 -18 -7 -80
-15 -138 -22 -162 -17 -250 14 -250 9 0 25 224 25 365 l1 90 -25 -2 c-42 -5
-282 -4 -325 1 -22 2 -66 1 -98 -4z"/>
<path d="M5415 3425 c-3 -8 -8 -23 -11 -32 -9 -26 -20 -453 -12 -453 4 0 15
15 25 33 14 25 18 56 18 137 0 114 -8 330 -13 330 -1 0 -5 -7 -7 -15z"/>
<path d="M8255 3403 c-35 -7 -75 -25 -75 -34 0 -5 34 -9 75 -9 73 0 89 7 63
27 -19 14 -40 20 -63 16z"/>
<path d="M8135 3280 c-158 -6 -245 -20 -245 -40 0 -24 69 -26 194 -5 102 17
161 9 189 -26 15 -18 17 -45 18 -193 3 -601 9 -799 24 -823 9 -13 19 -23 23
-23 9 0 6 232 -8 546 -5 133 -10 317 -10 408 0 91 -3 165 -7 164 -5 -1 -84 -4
-178 -8z"/>
<path d="M6271 3240 c-1 -19 -8 -86 -16 -148 -14 -108 -12 -179 6 -212 6 -11
8 -7 9 14 0 15 5 92 11 170 7 95 8 153 1 176 l-10 35 -1 -35z"/>
<path d="M8409 3268 c-1 -1 -7 -178 -15 -393 -7 -214 -16 -444 -20 -510 -4
-74 -2 -129 4 -145 10 -23 11 -23 11 -3 1 11 10 146 22 300 24 332 31 744 12
750 -7 3 -14 3 -14 1z"/>
<path d="M8022 3183 c-25 -3 -32 -9 -30 -21 3 -12 11 -16 28 -14 14 2 73 5
132 5 102 2 130 8 114 25 -8 8 -193 12 -244 5z"/>
<path d="M8077 3100 c-32 -10 -57 -28 -57 -41 0 -16 184 -11 206 5 13 10 16
18 9 25 -14 14 -125 22 -158 11z"/>
<path d="M12321 2970 c-23 -79 -24 -190 -1 -397 19 -176 21 -239 17 -480 -3
-153 -8 -290 -12 -304 -5 -19 -2 -31 12 -44 17 -18 18 -11 24 231 4 137 12
273 18 303 15 75 14 139 -6 213 -13 50 -17 111 -17 291 -1 159 -4 227 -12 227
-6 0 -16 -18 -23 -40z"/>
<path d="M12220 2893 c0 -60 -7 -331 -17 -604 -16 -470 -16 -498 0 -523 10
-14 21 -26 26 -26 4 0 11 141 15 313 3 171 9 455 12 630 l7 317 -22 0 c-20 0
-21 -4 -21 -107z"/>
<path d="M12456 2963 c-4 -21 -11 -252 -16 -513 -5 -271 -13 -499 -19 -530
-13 -62 -7 -126 14 -154 20 -26 25 -19 35 52 13 95 16 1175 3 1179 -6 2 -14
-13 -17 -34z"/>
<path d="M12645 2976 c-29 -43 -35 -89 -36 -256 -1 -228 -16 -260 -19 -40 -1
96 -6 207 -9 245 l-7 70 -17 -36 c-9 -20 -13 -46 -10 -58 6 -22 -13 -847 -23
-1033 -6 -104 -5 -108 14 -108 13 0 24 11 32 33 11 27 14 29 17 12 7 -29 23
-45 44 -45 18 0 19 17 20 473 1 259 4 538 8 620 3 81 5 147 4 147 -2 0 -10
-11 -18 -24z"/>
<path d="M9145 2365 c-24 -256 -13 -371 39 -414 15 -13 16 -7 9 75 -10 115
-10 346 0 452 7 76 6 82 -11 82 -17 0 -20 -19 -37 -195z"/>
<path d="M10005 2440 c-25 -9 -50 -38 -42 -46 9 -9 127 7 127 16 0 15 -31 40
-48 39 -9 0 -26 -4 -37 -9z"/>
<path d="M10680 2394 c-52 -31 -104 -64 -115 -74 -26 -24 -59 -80 -47 -80 5 0
53 30 108 67 54 37 121 79 148 94 45 25 47 28 28 38 -11 6 -22 11 -24 10 -2 0
-46 -25 -98 -55z"/>
<path d="M9951 2341 c-33 -33 -25 -41 37 -41 69 0 92 11 76 37 -17 27 -87 30
-113 4z"/>
<path d="M5287 2189 c20 -41 12 -99 -21 -149 -22 -33 -23 -40 -11 -50 22 -18
18 -27 -15 -39 -37 -12 -37 -16 -3 -45 32 -28 49 -24 56 12 2 15 16 71 31 126
40 150 35 176 -29 176 -23 0 -23 -1 -8 -31z"/>
<path d="M9976 2061 c-4 -5 -3 -16 0 -25 7 -19 74 -18 74 1 0 24 -62 44 -74
24z"/>
<path d="M8350 2013 c1 -90 -14 -342 -30 -493 -33 -320 -42 -507 -30 -625 17
-165 26 -166 33 -4 4 79 18 286 31 459 14 173 28 390 31 482 7 162 7 166 -14
177 -11 7 -21 8 -21 4z"/>
<path d="M10051 1983 c-1 -28 -5 -33 -25 -33 -42 0 -76 -18 -76 -40 0 -17 7
-20 38 -20 21 0 43 -5 50 -12 15 -15 16 -84 2 -93 -6 -4 -36 -9 -68 -12 -67
-7 -92 -18 -92 -40 0 -16 3 -16 121 3 23 4 39 2 44 -5 11 -18 -15 -41 -46 -41
-41 0 -79 -17 -79 -36 0 -14 7 -16 51 -10 58 8 79 -3 79 -41 0 -19 -9 -28 -45
-43 -60 -26 -63 -55 -5 -46 50 8 48 20 53 -256 5 -217 5 -217 31 -248 14 -18
26 -35 26 -40 0 -18 53 -70 72 -70 16 0 18 4 12 23 -19 60 -24 104 -24 252 0
167 -11 265 -35 319 -12 27 -13 6 -8 -179 9 -333 -11 -235 -37 180 -24 386
-36 543 -39 488z"/>
<path d="M5200 1846 c0 -8 10 -18 21 -21 21 -7 22 -11 15 -119 -5 -87 -4 -116
7 -130 13 -18 15 -15 28 35 15 60 18 179 6 222 -6 23 -13 27 -42 27 -24 0 -35
-5 -35 -14z"/>
<path d="M9160 1765 c0 -8 -9 -20 -20 -27 -25 -16 -25 -22 1 -57 15 -20 19
-39 17 -71 -3 -40 -6 -45 -35 -52 -37 -10 -42 -23 -14 -37 22 -12 41 -60 41
-102 0 -24 -4 -29 -23 -29 -13 0 -32 -6 -42 -14 -16 -12 -17 -16 -6 -30 7 -9
22 -16 31 -16 33 0 50 -12 50 -35 0 -18 -9 -26 -42 -37 -49 -15 -63 -38 -23
-38 43 0 66 -17 60 -45 -3 -14 -7 -36 -10 -50 -4 -17 -12 -25 -25 -25 -27 0
-25 -10 7 -35 36 -29 26 -69 -22 -92 -31 -15 -48 -35 -27 -32 28 5 61 -4 66
-17 3 -8 1 -47 -6 -85 -10 -62 -9 -71 7 -89 10 -11 21 -17 25 -15 23 14 35
148 30 335 -5 257 -5 445 0 555 4 63 1 100 -9 123 -14 33 -31 43 -31 17z"/>
<path d="M10460 1685 c0 -8 7 -15 15 -15 8 0 15 7 15 15 0 8 -7 15 -15 15 -8
0 -15 -7 -15 -15z"/>
<path d="M5310 1653 c0 -10 7 -29 16 -42 14 -20 23 -22 68 -18 28 2 87 12 131
21 44 10 90 20 101 22 12 2 25 11 28 20 6 15 -1 16 -76 8 -107 -11 -195 -11
-235 -1 -28 7 -33 6 -33 -10z"/>
<path d="M10755 1581 c-55 -27 -111 -61 -125 -76 l-25 -27 35 7 c82 18 186 79
211 126 5 10 8 19 7 18 -2 0 -48 -22 -103 -48z"/>
<path d="M5750 1591 c0 -18 -40 -59 -78 -80 -15 -8 -14 -12 11 -31 15 -12 27
-28 27 -36 0 -19 15 -18 61 4 43 19 49 36 18 52 -14 8 -17 15 -11 23 15 20 20
53 10 71 -12 22 -38 20 -38 -3z"/>
<path d="M10810 1530 c-25 -10 -60 -24 -79 -31 -37 -14 -91 -55 -91 -70 0 -26
163 45 204 90 34 35 29 36 -34 11z"/>
<path d="M10898 1480 c-9 -11 -56 -31 -103 -45 -49 -15 -97 -37 -113 -51 l-27
-25 53 6 c101 11 222 74 222 116 0 23 -10 23 -32 -1z"/>
<path d="M5586 1482 c-20 -19 24 -62 64 -62 30 0 36 6 22 26 -9 15 -79 44 -86
36z"/>
<path d="M7142 1093 c-1 -207 -4 -378 -6 -380 -2 -2 -32 -8 -67 -14 -99 -16
-110 -19 -104 -29 3 -6 43 -10 89 -10 71 0 86 -3 101 -20 10 -11 21 -16 24
-11 9 15 6 772 -3 809 -5 17 -14 32 -20 32 -8 0 -12 -106 -14 -377z"/>
<path d="M11134 1383 c-17 -23 -31 -27 -117 -38 -119 -16 -135 -26 -107 -65
39 -54 15 -83 -29 -36 -32 34 -90 61 -103 48 -7 -7 -3 -14 10 -21 12 -6 49
-36 84 -66 34 -30 75 -59 90 -64 26 -9 27 -8 23 17 -3 15 -9 50 -13 78 l-9 51
58 1 c32 0 72 8 89 17 35 18 71 70 63 91 -8 20 -17 17 -39 -13z"/>
<path d="M8406 1142 c-33 -251 -33 -383 -1 -442 l19 -35 7 55 c6 46 24 504 24
604 0 16 -5 31 -10 33 -7 2 -22 -79 -39 -215z"/>
<path d="M10680 1245 c50 -53 240 -160 240 -135 0 5 -13 25 -30 43 -29 33 -59
49 -180 97 l-55 22 25 -27z"/>
<path d="M7257 1226 c-3 -8 -9 -136 -13 -285 -6 -243 -5 -272 10 -295 36 -56
38 -36 32 276 -6 276 -13 347 -29 304z"/>
<path d="M4635 1075 c60 -37 118 -44 400 -47 235 -2 263 -1 293 15 19 10 32
21 29 23 -2 3 -38 -1 -78 -7 -99 -15 -355 -6 -534 21 -77 11 -142 20 -145 20
-3 0 13 -12 35 -25z"/>
<path d="M3515 1009 c-13 -59 -8 -150 9 -168 15 -14 18 -14 26 -1 20 32 5 179
-20 195 -4 3 -11 -9 -15 -26z"/>
<path d="M3630 913 c0 -21 5 -45 10 -53 7 -11 10 0 10 38 0 28 -4 52 -10 52
-5 0 -10 -17 -10 -37z"/>
<path d="M6530 758 c0 -121 10 -146 41 -108 17 20 20 33 15 65 -4 22 -9 64
-13 93 -5 42 -9 52 -24 52 -17 0 -19 -9 -19 -102z"/>
<path d="M6068 760 c-6 -59 -30 -90 -70 -90 -30 0 -36 -11 -14 -29 20 -17 424
-26 471 -11 51 17 43 30 -19 30 -65 0 -113 16 -127 41 -10 19 -11 19 -40 -6
-48 -39 -59 -34 -59 29 0 97 -23 119 -34 32 -8 -74 -14 -86 -42 -86 -23 0 -24
3 -24 58 0 52 -11 82 -31 82 -3 0 -9 -23 -11 -50z"/>
<path d="M6637 735 c-4 -48 -3 -84 5 -100 22 -48 38 -23 38 56 0 43 -21 119
-33 119 -2 0 -7 -34 -10 -75z"/>
<path d="M6746 783 c-10 -26 4 -123 18 -123 36 0 46 48 22 105 -16 38 -30 44
-40 18z"/>
<path d="M6872 748 c-18 -18 -15 -52 6 -71 22 -20 60 -24 44 -4 -6 6 -12 27
-14 46 -3 37 -17 48 -36 29z"/>
<path d="M4558 609 c-48 -25 -88 -83 -88 -128 0 -60 69 -114 99 -78 8 11 3 17
-24 30 -19 9 -42 28 -51 43 -18 26 -18 27 13 53 17 14 50 38 72 53 66 45 50
65 -21 27z"/>
<path d="M5410 560 c-11 -11 -20 -24 -20 -29 0 -5 -3 -16 -6 -25 -5 -13 1 -16
33 -16 21 0 44 5 51 12 17 17 15 65 -4 72 -25 9 -33 7 -54 -14z"/>
<path d="M10370 444 c-140 -7 -480 -18 -755 -23 -486 -10 -566 -16 -614 -45
-18 -11 -13 -44 10 -67 24 -24 -44 -25 754 1 331 11 882 7 1120 -9 87 -5 64
-7 -170 -15 -148 -5 -376 -10 -505 -12 -129 -1 -241 -2 -247 -3 -15 -1 -17
-27 -3 -36 5 -3 308 -7 672 -7 713 -2 750 0 801 48 15 13 27 29 27 33 0 18
-74 23 -395 28 -204 3 -335 9 -342 15 -7 6 -13 30 -13 53 0 46 -11 56 -58 54
-15 -1 -142 -8 -282 -15z"/>
<path d="M5345 385 c-37 -40 -75 -52 -127 -38 -36 10 -40 8 -79 -28 -29 -27
-40 -44 -37 -61 5 -34 30 -28 43 12 9 28 19 36 46 42 49 11 78 1 90 -29 11
-31 4 -57 -27 -99 -13 -17 -24 -34 -24 -37 0 -10 63 5 87 20 30 20 53 83 53
146 0 52 1 53 35 66 54 19 69 2 61 -66 -3 -29 -4 -53 0 -53 29 0 84 70 84 107
0 38 -31 53 -106 52 -65 0 -71 -2 -99 -34z"/>
</g>
</svg>
