<?xml version="1.0" encoding="utf-8" standalone="no"?>
<!DOCTYPE svg PUBLIC "-//W3C//DTD SVG 1.1//EN"
  "http://www.w3.org/Graphics/SVG/1.1/DTD/svg11.dtd">
<svg xmlns:xlink="http://www.w3.org/1999/xlink" width="444.144726pt" height="1023.251906pt" viewBox="0 0 444.144726 1023.251906" xmlns="http://www.w3.org/2000/svg" version="1.1">
 <metadata>
  <rdf:RDF xmlns:dc="http://purl.org/dc/elements/1.1/" xmlns:cc="http://creativecommons.org/ns#" xmlns:rdf="http://www.w3.org/1999/02/22-rdf-syntax-ns#">
   <cc:Work>
    <dc:type rdf:resource="http://purl.org/dc/dcmitype/StillImage"/>
    <dc:date>2025-04-07T08:52:29.637752</dc:date>
    <dc:format>image/svg+xml</dc:format>
    <dc:creator>
     <cc:Agent>
      <dc:title>Matplotlib v3.10.1, https://matplotlib.org/</dc:title>
     </cc:Agent>
    </dc:creator>
   </cc:Work>
  </rdf:RDF>
 </metadata>
 <defs>
  <style type="text/css">*{stroke-linejoin: round; stroke-linecap: butt}</style>
 </defs>
 <g id="figure_1">
  <g id="patch_1">
   <path d="M 0 1023.251906 
L 444.144726 1023.251906 
L 444.144726 -0 
L 0 -0 
L 0 1023.251906 
z
" style="fill: none"/>
  </g>
  <g id="axes_1">
   <g id="patch_2">
    <path d="M 135.432374 94.784178 
L 135.789358 94.781345 
L 136.146252 94.77285 
L 136.502967 94.758693 
L 136.859412 94.738878 
L 137.215498 94.71341 
L 137.571135 94.682296 
L 137.926233 94.645543 
L 138.280704 94.603161 
L 138.634458 94.55516 
L 138.987405 94.501553 
L 139.339458 94.442352 
L 139.690527 94.377573 
L 140.040524 94.307233 
L 140.389361 94.231348 
L 140.73695 94.149938 
L 141.083204 94.063023 
L 141.428035 93.970626 
L 141.771356 93.872769 
L 142.113082 93.769478 
L 142.453126 93.660778 
L 142.791403 93.546696 
L 143.127827 93.427261 
L 143.462314 93.302504 
L 143.794779 93.172456 
L 144.125139 93.037149 
L 144.453311 92.896618 
L 144.779212 92.750897 
L 145.102759 92.600025 
L 145.423873 92.444037 
L 145.742471 92.282975 
L 146.058473 92.116878 
L 146.3718 91.945789 
L 146.682374 91.769749 
L 146.990115 91.588804 
L 147.294947 91.403 
L 147.596792 91.212382 
L 147.895575 91.016999 
L 148.191221 90.816901 
L 148.483654 90.612136 
L 148.772802 90.402758 
L 149.058592 90.188819 
L 149.340951 89.970372 
L 149.619809 89.747473 
L 149.895095 89.520177 
L 150.16674 89.288543 
L 150.434676 89.052628 
L 150.698836 88.812491 
L 150.959152 88.568193 
L 151.215559 88.319796 
L 151.467993 88.067363 
L 151.71639 87.810955 
L 151.960687 87.550639 
L 152.200824 87.28648 
L 152.436739 87.018544 
L 152.668374 86.746899 
L 152.895669 86.471613 
L 153.118569 86.192755 
L 153.337015 85.910395 
L 153.550955 85.624606 
L 153.760333 85.335458 
L 153.965097 85.043024 
L 154.165196 84.747379 
L 154.360578 84.448596 
L 154.551196 84.146751 
L 154.737001 83.841919 
L 154.917945 83.534178 
L 155.093985 83.223604 
L 155.265075 82.910277 
L 155.431171 82.594274 
L 155.592234 82.275676 
L 155.748221 81.954563 
L 155.899094 81.631015 
L 156.044814 81.305115 
L 156.185346 80.976943 
L 156.320652 80.646583 
L 156.450701 80.314118 
L 156.575458 79.979631 
L 156.694892 79.643207 
L 156.808974 79.30493 
L 156.917674 78.964886 
L 157.020966 78.62316 
L 157.118822 78.279838 
L 157.21122 77.935007 
L 157.298134 77.588754 
L 157.379544 77.241165 
L 157.455429 76.892328 
L 157.52577 76.542331 
L 157.590548 76.191262 
L 157.649749 75.839209 
L 157.703356 75.486261 
L 157.751357 75.132508 
L 157.793739 74.778037 
L 157.830492 74.422939 
L 157.861606 74.067302 
L 157.887074 73.711216 
L 157.906889 73.354771 
L 157.921046 72.998056 
L 157.929542 72.641162 
L 157.932374 72.284178 
L 157.932374 72.284178 
L 157.929542 71.927193 
L 157.921046 71.570299 
L 157.906889 71.213584 
L 157.887074 70.857139 
L 157.861606 70.501053 
L 157.830492 70.145417 
L 157.793739 69.790318 
L 157.751357 69.435847 
L 157.703356 69.082094 
L 157.649749 68.729146 
L 157.590548 68.377094 
L 157.52577 68.026025 
L 157.455429 67.676027 
L 157.379544 67.327191 
L 157.298134 66.979601 
L 157.21122 66.633348 
L 157.118822 66.288517 
L 157.020966 65.945195 
L 156.917674 65.603469 
L 156.808974 65.263425 
L 156.694892 64.925148 
L 156.575458 64.588724 
L 156.450701 64.254238 
L 156.320652 63.921772 
L 156.185346 63.591412 
L 156.044814 63.26324 
L 155.899094 62.93734 
L 155.748221 62.613792 
L 155.592234 62.292679 
L 155.431171 61.974081 
L 155.265075 61.658078 
L 155.093985 61.344751 
L 154.917945 61.034178 
L 154.737001 60.726436 
L 154.551196 60.421605 
L 154.360578 60.119759 
L 154.165196 59.820976 
L 153.965097 59.525331 
L 153.760333 59.232897 
L 153.550955 58.943749 
L 153.337015 58.65796 
L 153.118569 58.3756 
L 152.895669 58.096743 
L 152.668374 57.821456 
L 152.436739 57.549811 
L 152.200824 57.281875 
L 151.960687 57.017716 
L 151.71639 56.7574 
L 151.467993 56.500993 
L 151.215559 56.248559 
L 150.959152 56.000162 
L 150.698836 55.755864 
L 150.434676 55.515727 
L 150.16674 55.279812 
L 149.895095 55.048178 
L 149.619809 54.820882 
L 149.340951 54.597983 
L 149.058592 54.379536 
L 148.772802 54.165597 
L 148.483654 53.956219 
L 148.191221 53.751454 
L 147.895575 53.551356 
L 147.596792 53.355973 
L 147.294947 53.165355 
L 146.990115 52.979551 
L 146.682374 52.798606 
L 146.3718 52.622567 
L 146.058473 52.451477 
L 145.742471 52.28538 
L 145.423873 52.124318 
L 145.102759 51.96833 
L 144.779212 51.817458 
L 144.453311 51.671737 
L 144.125139 51.531206 
L 143.794779 51.395899 
L 143.462314 51.265851 
L 143.127827 51.141094 
L 142.791403 51.021659 
L 142.453126 50.907577 
L 142.113082 50.798877 
L 141.771356 50.695586 
L 141.428035 50.597729 
L 141.083204 50.505332 
L 140.73695 50.418417 
L 140.389361 50.337007 
L 140.040524 50.261122 
L 139.690527 50.190782 
L 139.339458 50.126003 
L 138.987405 50.066803 
L 138.634458 50.013195 
L 138.280704 49.965194 
L 137.926233 49.922812 
L 137.571135 49.886059 
L 137.215498 49.854945 
L 136.859412 49.829477 
L 136.502967 49.809662 
L 136.146252 49.795505 
L 135.789358 49.78701 
L 135.432374 49.784178 
L 66.325874 49.784178 
L 65.96889 49.78701 
L 65.611995 49.795505 
L 65.255281 49.809662 
L 64.898836 49.829477 
L 64.54275 49.854945 
L 64.187113 49.886059 
L 63.832014 49.922812 
L 63.477544 49.965194 
L 63.12379 50.013195 
L 62.770842 50.066803 
L 62.41879 50.126003 
L 62.067721 50.190782 
L 61.717724 50.261122 
L 61.368887 50.337007 
L 61.021298 50.418417 
L 60.675044 50.505332 
L 60.330213 50.597729 
L 59.986891 50.695586 
L 59.645165 50.798877 
L 59.305121 50.907577 
L 58.966845 51.021659 
L 58.630421 51.141094 
L 58.295934 51.265851 
L 57.963469 51.395899 
L 57.633109 51.531206 
L 57.304937 51.671737 
L 56.979036 51.817458 
L 56.655488 51.96833 
L 56.334375 52.124318 
L 56.015777 52.28538 
L 55.699775 52.451477 
L 55.386447 52.622567 
L 55.075874 52.798606 
L 54.768133 52.979551 
L 54.463301 53.165355 
L 54.161456 53.355973 
L 53.862672 53.551356 
L 53.567027 53.751454 
L 53.274593 53.956219 
L 52.985445 54.165597 
L 52.699656 54.379536 
L 52.417297 54.597983 
L 52.138439 54.820882 
L 51.863153 55.048178 
L 51.591507 55.279812 
L 51.323571 55.515727 
L 51.059412 55.755864 
L 50.799096 56.000162 
L 50.542689 56.248559 
L 50.290255 56.500993 
L 50.041858 56.7574 
L 49.79756 57.017716 
L 49.557424 57.281875 
L 49.321508 57.549811 
L 49.089874 57.821456 
L 48.862578 58.096743 
L 48.639679 58.3756 
L 48.421232 58.65796 
L 48.207293 58.943749 
L 47.997915 59.232897 
L 47.793151 59.525331 
L 47.593052 59.820976 
L 47.397669 60.119759 
L 47.207052 60.421605 
L 47.021247 60.726436 
L 46.840302 61.034178 
L 46.664263 61.344751 
L 46.493173 61.658078 
L 46.327076 61.974081 
L 46.166014 62.292679 
L 46.010027 62.613792 
L 45.859154 62.93734 
L 45.713434 63.26324 
L 45.572902 63.591412 
L 45.437595 63.921772 
L 45.307547 64.254238 
L 45.18279 64.588724 
L 45.063355 64.925148 
L 44.949274 65.263425 
L 44.840573 65.603469 
L 44.737282 65.945195 
L 44.639425 66.288517 
L 44.547028 66.633348 
L 44.460114 66.979601 
L 44.378704 67.327191 
L 44.302819 67.676027 
L 44.232478 68.026025 
L 44.167699 68.377094 
L 44.108499 68.729146 
L 44.054891 69.082094 
L 44.006891 69.435847 
L 43.964508 69.790318 
L 43.927756 70.145417 
L 43.896641 70.501053 
L 43.871174 70.857139 
L 43.851359 71.213584 
L 43.837202 71.570299 
L 43.828706 71.927193 
L 43.825874 72.284178 
L 43.825874 72.284178 
L 43.828706 72.641162 
L 43.837202 72.998056 
L 43.851359 73.354771 
L 43.871174 73.711216 
L 43.896641 74.067302 
L 43.927756 74.422939 
L 43.964508 74.778037 
L 44.006891 75.132508 
L 44.054891 75.486261 
L 44.108499 75.839209 
L 44.167699 76.191262 
L 44.232478 76.542331 
L 44.302819 76.892328 
L 44.378704 77.241165 
L 44.460114 77.588754 
L 44.547028 77.935007 
L 44.639425 78.279838 
L 44.737282 78.62316 
L 44.840573 78.964886 
L 44.949274 79.30493 
L 45.063355 79.643207 
L 45.18279 79.979631 
L 45.307547 80.314118 
L 45.437595 80.646583 
L 45.572902 80.976943 
L 45.713434 81.305115 
L 45.859154 81.631015 
L 46.010027 81.954563 
L 46.166014 82.275676 
L 46.327076 82.594274 
L 46.493173 82.910277 
L 46.664263 83.223604 
L 46.840302 83.534178 
L 47.021247 83.841919 
L 47.207052 84.146751 
L 47.397669 84.448596 
L 47.593052 84.747379 
L 47.793151 85.043024 
L 47.997915 85.335458 
L 48.207293 85.624606 
L 48.421232 85.910395 
L 48.639679 86.192755 
L 48.862578 86.471613 
L 49.089874 86.746899 
L 49.321508 87.018544 
L 49.557424 87.28648 
L 49.79756 87.550639 
L 50.041858 87.810955 
L 50.290255 88.067363 
L 50.542689 88.319796 
L 50.799096 88.568193 
L 51.059412 88.812491 
L 51.323571 89.052628 
L 51.591507 89.288543 
L 51.863153 89.520177 
L 52.138439 89.747473 
L 52.417297 89.970372 
L 52.699656 90.188819 
L 52.985445 90.402758 
L 53.274593 90.612136 
L 53.567027 90.816901 
L 53.862672 91.016999 
L 54.161456 91.212382 
L 54.463301 91.403 
L 54.768133 91.588804 
L 55.075874 91.769749 
L 55.386447 91.945789 
L 55.699775 92.116878 
L 56.015777 92.282975 
L 56.334375 92.444037 
L 56.655488 92.600025 
L 56.979036 92.750897 
L 57.304937 92.896618 
L 57.633109 93.037149 
L 57.963469 93.172456 
L 58.295934 93.302504 
L 58.630421 93.427261 
L 58.966845 93.546696 
L 59.305121 93.660778 
L 59.645165 93.769478 
L 59.986891 93.872769 
L 60.330213 93.970626 
L 60.675044 94.063023 
L 61.021298 94.149938 
L 61.368887 94.231348 
L 61.717724 94.307233 
L 62.067721 94.377573 
L 62.41879 94.442352 
L 62.770842 94.501553 
L 63.12379 94.55516 
L 63.477544 94.603161 
L 63.832014 94.645543 
L 64.187113 94.682296 
L 64.54275 94.71341 
L 64.898836 94.738878 
L 65.255281 94.758693 
L 65.611995 94.77285 
L 65.96889 94.781345 
L 66.325874 94.784178 
L 135.432374 94.784178 
z
" clip-path="url(#p8ccd2f562b)" style="fill: none; stroke: #000000; stroke-width: 2; stroke-linecap: round"/>
   </g>
   <g id="patch_3">
    <path d="M 33.988146 421.625953 
L 100.879124 382.784178 
L 167.770102 421.625953 
L 100.879124 460.467728 
L 33.988146 421.625953 
z
" clip-path="url(#p8ccd2f562b)" style="fill: none; stroke: #000000; stroke-width: 2; stroke-linecap: round"/>
   </g>
   <g id="patch_4">
    <path d="M 132.379124 973.467728 
L 132.736108 973.464896 
L 133.093002 973.4564 
L 133.449717 973.442243 
L 133.806162 973.422428 
L 134.162248 973.396961 
L 134.517885 973.365846 
L 134.872983 973.329094 
L 135.227454 973.286711 
L 135.581208 973.238711 
L 135.934155 973.185103 
L 136.286208 973.125903 
L 136.637277 973.061124 
L 136.987274 972.990783 
L 137.336111 972.914898 
L 137.6837 972.833488 
L 138.029954 972.746574 
L 138.374785 972.654177 
L 138.718106 972.55632 
L 139.059832 972.453029 
L 139.399876 972.344328 
L 139.738153 972.230247 
L 140.074577 972.110812 
L 140.409064 971.986055 
L 140.741529 971.856007 
L 141.071889 971.7207 
L 141.400061 971.580168 
L 141.725962 971.434448 
L 142.049509 971.283575 
L 142.370623 971.127588 
L 142.689221 970.966526 
L 143.005223 970.800429 
L 143.31855 970.629339 
L 143.629124 970.4533 
L 143.936865 970.272355 
L 144.241697 970.08655 
L 144.543542 969.895933 
L 144.842325 969.70055 
L 145.137971 969.500451 
L 145.430404 969.295687 
L 145.719552 969.086309 
L 146.005342 968.872369 
L 146.287701 968.653923 
L 146.566559 968.431024 
L 146.841845 968.203728 
L 147.11349 967.972094 
L 147.381426 967.736178 
L 147.645586 967.496042 
L 147.905902 967.251744 
L 148.162309 967.003347 
L 148.414743 966.750913 
L 148.66314 966.494506 
L 148.907437 966.23419 
L 149.147574 965.970031 
L 149.383489 965.702095 
L 149.615124 965.430449 
L 149.842419 965.155163 
L 150.065319 964.876305 
L 150.283765 964.593946 
L 150.497705 964.308156 
L 150.707083 964.019009 
L 150.911847 963.726575 
L 151.111946 963.43093 
L 151.307328 963.132146 
L 151.497946 962.830301 
L 151.683751 962.525469 
L 151.864695 962.217728 
L 152.040735 961.907155 
L 152.211825 961.593827 
L 152.377921 961.277825 
L 152.538984 960.959227 
L 152.694971 960.638114 
L 152.845844 960.314566 
L 152.991564 959.988665 
L 153.132096 959.660493 
L 153.267402 959.330133 
L 153.397451 958.997668 
L 153.522208 958.663181 
L 153.641642 958.326757 
L 153.755724 957.988481 
L 153.864424 957.648437 
L 153.967716 957.306711 
L 154.065572 956.963389 
L 154.15797 956.618558 
L 154.244884 956.272304 
L 154.326294 955.924715 
L 154.402179 955.575878 
L 154.47252 955.225881 
L 154.537298 954.874812 
L 154.596499 954.522759 
L 154.650106 954.169812 
L 154.698107 953.816058 
L 154.740489 953.461588 
L 154.777242 953.106489 
L 154.808356 952.750852 
L 154.833824 952.394766 
L 154.853639 952.038321 
L 154.867796 951.681607 
L 154.876292 951.324712 
L 154.879124 950.967728 
L 154.879124 950.967728 
L 154.876292 950.610744 
L 154.867796 950.25385 
L 154.853639 949.897135 
L 154.833824 949.54069 
L 154.808356 949.184604 
L 154.777242 948.828967 
L 154.740489 948.473869 
L 154.698107 948.119398 
L 154.650106 947.765644 
L 154.596499 947.412697 
L 154.537298 947.060644 
L 154.47252 946.709575 
L 154.402179 946.359578 
L 154.326294 946.010741 
L 154.244884 945.663152 
L 154.15797 945.316898 
L 154.065572 944.972067 
L 153.967716 944.628746 
L 153.864424 944.28702 
L 153.755724 943.946976 
L 153.641642 943.608699 
L 153.522208 943.272275 
L 153.397451 942.937788 
L 153.267402 942.605323 
L 153.132096 942.274963 
L 152.991564 941.946791 
L 152.845844 941.62089 
L 152.694971 941.297343 
L 152.538984 940.976229 
L 152.377921 940.657631 
L 152.211825 940.341629 
L 152.040735 940.028302 
L 151.864695 939.717728 
L 151.683751 939.409987 
L 151.497946 939.105155 
L 151.307328 938.80331 
L 151.111946 938.504527 
L 150.911847 938.208881 
L 150.707083 937.916448 
L 150.497705 937.6273 
L 150.283765 937.34151 
L 150.065319 937.059151 
L 149.842419 936.780293 
L 149.615124 936.505007 
L 149.383489 936.233362 
L 149.147574 935.965426 
L 148.907437 935.701266 
L 148.66314 935.44095 
L 148.414743 935.184543 
L 148.162309 934.932109 
L 147.905902 934.683712 
L 147.645586 934.439415 
L 147.381426 934.199278 
L 147.11349 933.963363 
L 146.841845 933.731728 
L 146.566559 933.504433 
L 146.287701 933.281533 
L 146.005342 933.063087 
L 145.719552 932.849147 
L 145.430404 932.639769 
L 145.137971 932.435005 
L 144.842325 932.234906 
L 144.543542 932.039524 
L 144.241697 931.848906 
L 143.936865 931.663101 
L 143.629124 931.482156 
L 143.31855 931.306117 
L 143.005223 931.135027 
L 142.689221 930.96893 
L 142.370623 930.807868 
L 142.049509 930.651881 
L 141.725962 930.501008 
L 141.400061 930.355288 
L 141.071889 930.214756 
L 140.741529 930.07945 
L 140.409064 929.949401 
L 140.074577 929.824644 
L 139.738153 929.70521 
L 139.399876 929.591128 
L 139.059832 929.482428 
L 138.718106 929.379136 
L 138.374785 929.28128 
L 138.029954 929.188882 
L 137.6837 929.101968 
L 137.336111 929.020558 
L 136.987274 928.944673 
L 136.637277 928.874332 
L 136.286208 928.809554 
L 135.934155 928.750353 
L 135.581208 928.696746 
L 135.227454 928.648745 
L 134.872983 928.606363 
L 134.517885 928.56961 
L 134.162248 928.538496 
L 133.806162 928.513028 
L 133.449717 928.493213 
L 133.093002 928.479056 
L 132.736108 928.47056 
L 132.379124 928.467728 
L 69.379124 928.467728 
L 69.02214 928.47056 
L 68.665245 928.479056 
L 68.308531 928.493213 
L 67.952086 928.513028 
L 67.596 928.538496 
L 67.240363 928.56961 
L 66.885264 928.606363 
L 66.530794 928.648745 
L 66.17704 928.696746 
L 65.824092 928.750353 
L 65.47204 928.809554 
L 65.120971 928.874332 
L 64.770974 928.944673 
L 64.422137 929.020558 
L 64.074548 929.101968 
L 63.728294 929.188882 
L 63.383463 929.28128 
L 63.040141 929.379136 
L 62.698415 929.482428 
L 62.358371 929.591128 
L 62.020095 929.70521 
L 61.683671 929.824644 
L 61.349184 929.949401 
L 61.016719 930.07945 
L 60.686359 930.214756 
L 60.358187 930.355288 
L 60.032286 930.501008 
L 59.708738 930.651881 
L 59.387625 930.807868 
L 59.069027 930.96893 
L 58.753025 931.135027 
L 58.439697 931.306117 
L 58.129124 931.482156 
L 57.821383 931.663101 
L 57.516551 931.848906 
L 57.214706 932.039524 
L 56.915922 932.234906 
L 56.620277 932.435005 
L 56.327843 932.639769 
L 56.038695 932.849147 
L 55.752906 933.063087 
L 55.470547 933.281533 
L 55.191689 933.504433 
L 54.916403 933.731728 
L 54.644757 933.963363 
L 54.376821 934.199278 
L 54.112662 934.439415 
L 53.852346 934.683712 
L 53.595939 934.932109 
L 53.343505 935.184543 
L 53.095108 935.44095 
L 52.85081 935.701266 
L 52.610674 935.965426 
L 52.374758 936.233362 
L 52.143124 936.505007 
L 51.915828 936.780293 
L 51.692929 937.059151 
L 51.474482 937.34151 
L 51.260543 937.6273 
L 51.051165 937.916448 
L 50.846401 938.208881 
L 50.646302 938.504527 
L 50.450919 938.80331 
L 50.260302 939.105155 
L 50.074497 939.409987 
L 49.893552 939.717728 
L 49.717513 940.028302 
L 49.546423 940.341629 
L 49.380326 940.657631 
L 49.219264 940.976229 
L 49.063277 941.297343 
L 48.912404 941.62089 
L 48.766684 941.946791 
L 48.626152 942.274963 
L 48.490845 942.605323 
L 48.360797 942.937788 
L 48.23604 943.272275 
L 48.116605 943.608699 
L 48.002524 943.946976 
L 47.893823 944.28702 
L 47.790532 944.628746 
L 47.692675 944.972067 
L 47.600278 945.316898 
L 47.513364 945.663152 
L 47.431954 946.010741 
L 47.356069 946.359578 
L 47.285728 946.709575 
L 47.220949 947.060644 
L 47.161749 947.412697 
L 47.108141 947.765644 
L 47.060141 948.119398 
L 47.017758 948.473869 
L 46.981006 948.828967 
L 46.949891 949.184604 
L 46.924424 949.54069 
L 46.904609 949.897135 
L 46.890452 950.25385 
L 46.881956 950.610744 
L 46.879124 950.967728 
L 46.879124 950.967728 
L 46.881956 951.324712 
L 46.890452 951.681607 
L 46.904609 952.038321 
L 46.924424 952.394766 
L 46.949891 952.750852 
L 46.981006 953.106489 
L 47.017758 953.461588 
L 47.060141 953.816058 
L 47.108141 954.169812 
L 47.161749 954.522759 
L 47.220949 954.874812 
L 47.285728 955.225881 
L 47.356069 955.575878 
L 47.431954 955.924715 
L 47.513364 956.272304 
L 47.600278 956.618558 
L 47.692675 956.963389 
L 47.790532 957.306711 
L 47.893823 957.648437 
L 48.002524 957.988481 
L 48.116605 958.326757 
L 48.23604 958.663181 
L 48.360797 958.997668 
L 48.490845 959.330133 
L 48.626152 959.660493 
L 48.766684 959.988665 
L 48.912404 960.314566 
L 49.063277 960.638114 
L 49.219264 960.959227 
L 49.380326 961.277825 
L 49.546423 961.593827 
L 49.717513 961.907155 
L 49.893552 962.217728 
L 50.074497 962.525469 
L 50.260302 962.830301 
L 50.450919 963.132146 
L 50.646302 963.43093 
L 50.846401 963.726575 
L 51.051165 964.019009 
L 51.260543 964.308156 
L 51.474482 964.593946 
L 51.692929 964.876305 
L 51.915828 965.155163 
L 52.143124 965.430449 
L 52.374758 965.702095 
L 52.610674 965.970031 
L 52.85081 966.23419 
L 53.095108 966.494506 
L 53.343505 966.750913 
L 53.595939 967.003347 
L 53.852346 967.251744 
L 54.112662 967.496042 
L 54.376821 967.736178 
L 54.644757 967.972094 
L 54.916403 968.203728 
L 55.191689 968.431024 
L 55.470547 968.653923 
L 55.752906 968.872369 
L 56.038695 969.086309 
L 56.327843 969.295687 
L 56.620277 969.500451 
L 56.915922 969.70055 
L 57.214706 969.895933 
L 57.516551 970.08655 
L 57.821383 970.272355 
L 58.129124 970.4533 
L 58.439697 970.629339 
L 58.753025 970.800429 
L 59.069027 970.966526 
L 59.387625 971.127588 
L 59.708738 971.283575 
L 60.032286 971.434448 
L 60.358187 971.580168 
L 60.686359 971.7207 
L 61.016719 971.856007 
L 61.349184 971.986055 
L 61.683671 972.110812 
L 62.020095 972.230247 
L 62.358371 972.344328 
L 62.698415 972.453029 
L 63.040141 972.55632 
L 63.383463 972.654177 
L 63.728294 972.746574 
L 64.074548 972.833488 
L 64.422137 972.914898 
L 64.770974 972.990783 
L 65.120971 973.061124 
L 65.47204 973.125903 
L 65.824092 973.185103 
L 66.17704 973.238711 
L 66.530794 973.286711 
L 66.885264 973.329094 
L 67.240363 973.365846 
L 67.596 973.396961 
L 67.952086 973.422428 
L 68.308531 973.442243 
L 68.665245 973.4564 
L 69.02214 973.464896 
L 69.379124 973.467728 
L 132.379124 973.467728 
z
" clip-path="url(#p8ccd2f562b)" style="fill: none; stroke: #000000; stroke-width: 2; stroke-linecap: round"/>
   </g>
   <g id="line2d_1">
    <path d="M 100.879124 94.784178 
L 100.879124 148.784178 
L 100.879124 202.784178 
" clip-path="url(#p8ccd2f562b)" style="fill: none; stroke: #000000; stroke-width: 2; stroke-linecap: round"/>
   </g>
   <g id="line2d_2">
    <path d="M 23.461124 238.784178 
L 23.461124 202.784178 
L 178.297124 202.784178 
L 178.297124 274.784178 
L 23.461124 274.784178 
L 23.461124 238.784178 
" clip-path="url(#p8ccd2f562b)" style="fill: none; stroke: #000000; stroke-width: 2; stroke-linecap: round"/>
   </g>
   <g id="line2d_3">
    <path d="M 100.879124 274.784178 
L 100.879124 328.784178 
L 100.879124 382.784178 
" clip-path="url(#p8ccd2f562b)" style="fill: none; stroke: #000000; stroke-width: 2; stroke-linecap: round"/>
   </g>
   <g id="line2d_4">
    <path d="M 100.879124 460.467728 
L 100.879124 514.467728 
L 100.879124 559.467728 
" clip-path="url(#p8ccd2f562b)" style="fill: none; stroke: #000000; stroke-width: 2; stroke-linecap: round"/>
   </g>
   <g id="patch_5">
    <path d="M 103.579124 559.467728 
L 100.879124 568.467728 
L 98.179124 559.467728 
z
" clip-path="url(#p8ccd2f562b)"/>
   </g>
   <g id="line2d_5">
    <path d="M 29.225624 604.467728 
L 29.225624 568.467728 
L 172.532624 568.467728 
L 172.532624 640.467728 
L 29.225624 640.467728 
L 29.225624 604.467728 
" clip-path="url(#p8ccd2f562b)" style="fill: none; stroke: #000000; stroke-width: 2; stroke-linecap: round"/>
   </g>
   <g id="line2d_6">
    <path d="M 100.879124 640.467728 
L 100.879124 694.467728 
L 100.879124 748.467728 
" clip-path="url(#p8ccd2f562b)" style="fill: none; stroke: #000000; stroke-width: 2; stroke-linecap: round"/>
   </g>
   <g id="line2d_7">
    <path d="M 33.714374 784.467728 
L 33.714374 748.467728 
L 168.043874 748.467728 
L 168.043874 820.467728 
L 33.714374 820.467728 
L 33.714374 784.467728 
" clip-path="url(#p8ccd2f562b)" style="fill: none; stroke: #000000; stroke-width: 2; stroke-linecap: round"/>
   </g>
   <g id="line2d_8">
    <path d="M 100.879124 820.467728 
L 100.879124 874.467728 
L 100.879124 928.467728 
" clip-path="url(#p8ccd2f562b)" style="fill: none; stroke: #000000; stroke-width: 2; stroke-linecap: round"/>
   </g>
   <g id="line2d_9">
    <path d="M 167.770102 421.625953 
L 221.770102 421.625953 
L 266.770102 421.625953 
" clip-path="url(#p8ccd2f562b)" style="fill: none; stroke: #000000; stroke-width: 2; stroke-linecap: round"/>
   </g>
   <g id="patch_6">
    <path d="M 266.770102 418.925953 
L 275.770102 421.625953 
L 266.770102 424.325953 
z
" clip-path="url(#p8ccd2f562b)"/>
   </g>
   <g id="line2d_10">
    <path d="M 275.770102 421.625953 
L 275.770102 385.625953 
L 420.683602 385.625953 
L 420.683602 457.625953 
L 275.770102 457.625953 
L 275.770102 421.625953 
" clip-path="url(#p8ccd2f562b)" style="fill: none; stroke: #000000; stroke-width: 2; stroke-linecap: round"/>
   </g>
   <g id="line2d_11">
    <path d="M 348.226852 457.625953 
L 348.226852 604.467728 
L 181.532624 604.467728 
" clip-path="url(#p8ccd2f562b)" style="fill: none; stroke: #000000; stroke-width: 2; stroke-linecap: round"/>
   </g>
   <g id="patch_7">
    <path d="M 181.532624 607.167728 
L 172.532624 604.467728 
L 181.532624 601.767728 
z
" clip-path="url(#p8ccd2f562b)"/>
   </g>
   <g id="text_1">
    <!-- Mittagspause -->
    <g transform="translate(58.935765 75.733396) scale(0.125 -0.125)">
     <defs>
      <path id="DejaVuSans-4d" d="M 628 4666 
L 1569 4666 
L 2759 1491 
L 3956 4666 
L 4897 4666 
L 4897 0 
L 4281 0 
L 4281 4097 
L 3078 897 
L 2444 897 
L 1241 4097 
L 1241 0 
L 628 0 
L 628 4666 
z
" transform="scale(0.015625)"/>
      <path id="DejaVuSans-69" d="M 603 3500 
L 1178 3500 
L 1178 0 
L 603 0 
L 603 3500 
z
M 603 4863 
L 1178 4863 
L 1178 4134 
L 603 4134 
L 603 4863 
z
" transform="scale(0.015625)"/>
      <path id="DejaVuSans-74" d="M 1172 4494 
L 1172 3500 
L 2356 3500 
L 2356 3053 
L 1172 3053 
L 1172 1153 
Q 1172 725 1289 603 
Q 1406 481 1766 481 
L 2356 481 
L 2356 0 
L 1766 0 
Q 1100 0 847 248 
Q 594 497 594 1153 
L 594 3053 
L 172 3053 
L 172 3500 
L 594 3500 
L 594 4494 
L 1172 4494 
z
" transform="scale(0.015625)"/>
      <path id="DejaVuSans-61" d="M 2194 1759 
Q 1497 1759 1228 1600 
Q 959 1441 959 1056 
Q 959 750 1161 570 
Q 1363 391 1709 391 
Q 2188 391 2477 730 
Q 2766 1069 2766 1631 
L 2766 1759 
L 2194 1759 
z
M 3341 1997 
L 3341 0 
L 2766 0 
L 2766 531 
Q 2569 213 2275 61 
Q 1981 -91 1556 -91 
Q 1019 -91 701 211 
Q 384 513 384 1019 
Q 384 1609 779 1909 
Q 1175 2209 1959 2209 
L 2766 2209 
L 2766 2266 
Q 2766 2663 2505 2880 
Q 2244 3097 1772 3097 
Q 1472 3097 1187 3025 
Q 903 2953 641 2809 
L 641 3341 
Q 956 3463 1253 3523 
Q 1550 3584 1831 3584 
Q 2591 3584 2966 3190 
Q 3341 2797 3341 1997 
z
" transform="scale(0.015625)"/>
      <path id="DejaVuSans-67" d="M 2906 1791 
Q 2906 2416 2648 2759 
Q 2391 3103 1925 3103 
Q 1463 3103 1205 2759 
Q 947 2416 947 1791 
Q 947 1169 1205 825 
Q 1463 481 1925 481 
Q 2391 481 2648 825 
Q 2906 1169 2906 1791 
z
M 3481 434 
Q 3481 -459 3084 -895 
Q 2688 -1331 1869 -1331 
Q 1566 -1331 1297 -1286 
Q 1028 -1241 775 -1147 
L 775 -588 
Q 1028 -725 1275 -790 
Q 1522 -856 1778 -856 
Q 2344 -856 2625 -561 
Q 2906 -266 2906 331 
L 2906 616 
Q 2728 306 2450 153 
Q 2172 0 1784 0 
Q 1141 0 747 490 
Q 353 981 353 1791 
Q 353 2603 747 3093 
Q 1141 3584 1784 3584 
Q 2172 3584 2450 3431 
Q 2728 3278 2906 2969 
L 2906 3500 
L 3481 3500 
L 3481 434 
z
" transform="scale(0.015625)"/>
      <path id="DejaVuSans-73" d="M 2834 3397 
L 2834 2853 
Q 2591 2978 2328 3040 
Q 2066 3103 1784 3103 
Q 1356 3103 1142 2972 
Q 928 2841 928 2578 
Q 928 2378 1081 2264 
Q 1234 2150 1697 2047 
L 1894 2003 
Q 2506 1872 2764 1633 
Q 3022 1394 3022 966 
Q 3022 478 2636 193 
Q 2250 -91 1575 -91 
Q 1294 -91 989 -36 
Q 684 19 347 128 
L 347 722 
Q 666 556 975 473 
Q 1284 391 1588 391 
Q 1994 391 2212 530 
Q 2431 669 2431 922 
Q 2431 1156 2273 1281 
Q 2116 1406 1581 1522 
L 1381 1569 
Q 847 1681 609 1914 
Q 372 2147 372 2553 
Q 372 3047 722 3315 
Q 1072 3584 1716 3584 
Q 2034 3584 2315 3537 
Q 2597 3491 2834 3397 
z
" transform="scale(0.015625)"/>
      <path id="DejaVuSans-70" d="M 1159 525 
L 1159 -1331 
L 581 -1331 
L 581 3500 
L 1159 3500 
L 1159 2969 
Q 1341 3281 1617 3432 
Q 1894 3584 2278 3584 
Q 2916 3584 3314 3078 
Q 3713 2572 3713 1747 
Q 3713 922 3314 415 
Q 2916 -91 2278 -91 
Q 1894 -91 1617 61 
Q 1341 213 1159 525 
z
M 3116 1747 
Q 3116 2381 2855 2742 
Q 2594 3103 2138 3103 
Q 1681 3103 1420 2742 
Q 1159 2381 1159 1747 
Q 1159 1113 1420 752 
Q 1681 391 2138 391 
Q 2594 391 2855 752 
Q 3116 1113 3116 1747 
z
" transform="scale(0.015625)"/>
      <path id="DejaVuSans-75" d="M 544 1381 
L 544 3500 
L 1119 3500 
L 1119 1403 
Q 1119 906 1312 657 
Q 1506 409 1894 409 
Q 2359 409 2629 706 
Q 2900 1003 2900 1516 
L 2900 3500 
L 3475 3500 
L 3475 0 
L 2900 0 
L 2900 538 
Q 2691 219 2414 64 
Q 2138 -91 1772 -91 
Q 1169 -91 856 284 
Q 544 659 544 1381 
z
M 1991 3584 
L 1991 3584 
z
" transform="scale(0.015625)"/>
      <path id="DejaVuSans-65" d="M 3597 1894 
L 3597 1613 
L 953 1613 
Q 991 1019 1311 708 
Q 1631 397 2203 397 
Q 2534 397 2845 478 
Q 3156 559 3463 722 
L 3463 178 
Q 3153 47 2828 -22 
Q 2503 -91 2169 -91 
Q 1331 -91 842 396 
Q 353 884 353 1716 
Q 353 2575 817 3079 
Q 1281 3584 2069 3584 
Q 2775 3584 3186 3129 
Q 3597 2675 3597 1894 
z
M 3022 2063 
Q 3016 2534 2758 2815 
Q 2500 3097 2075 3097 
Q 1594 3097 1305 2825 
Q 1016 2553 972 2059 
L 3022 2063 
z
" transform="scale(0.015625)"/>
     </defs>
     <use xlink:href="#DejaVuSans-4d"/>
     <use xlink:href="#DejaVuSans-69" transform="translate(86.279297 0)"/>
     <use xlink:href="#DejaVuSans-74" transform="translate(114.0625 0)"/>
     <use xlink:href="#DejaVuSans-74" transform="translate(153.271484 0)"/>
     <use xlink:href="#DejaVuSans-61" transform="translate(192.480469 0)"/>
     <use xlink:href="#DejaVuSans-67" transform="translate(253.759766 0)"/>
     <use xlink:href="#DejaVuSans-73" transform="translate(317.236328 0)"/>
     <use xlink:href="#DejaVuSans-70" transform="translate(369.335938 0)"/>
     <use xlink:href="#DejaVuSans-61" transform="translate(432.8125 0)"/>
     <use xlink:href="#DejaVuSans-75" transform="translate(494.091797 0)"/>
     <use xlink:href="#DejaVuSans-73" transform="translate(557.470703 0)"/>
     <use xlink:href="#DejaVuSans-65" transform="translate(609.570312 0)"/>
    </g>
   </g>
   <g id="text_2">
    <!-- Kartoffeln abzählen -->
    <g transform="translate(39.874241 242.233396) scale(0.125 -0.125)">
     <defs>
      <path id="DejaVuSans-4b" d="M 628 4666 
L 1259 4666 
L 1259 2694 
L 3353 4666 
L 4166 4666 
L 1850 2491 
L 4331 0 
L 3500 0 
L 1259 2247 
L 1259 0 
L 628 0 
L 628 4666 
z
" transform="scale(0.015625)"/>
      <path id="DejaVuSans-72" d="M 2631 2963 
Q 2534 3019 2420 3045 
Q 2306 3072 2169 3072 
Q 1681 3072 1420 2755 
Q 1159 2438 1159 1844 
L 1159 0 
L 581 0 
L 581 3500 
L 1159 3500 
L 1159 2956 
Q 1341 3275 1631 3429 
Q 1922 3584 2338 3584 
Q 2397 3584 2469 3576 
Q 2541 3569 2628 3553 
L 2631 2963 
z
" transform="scale(0.015625)"/>
      <path id="DejaVuSans-6f" d="M 1959 3097 
Q 1497 3097 1228 2736 
Q 959 2375 959 1747 
Q 959 1119 1226 758 
Q 1494 397 1959 397 
Q 2419 397 2687 759 
Q 2956 1122 2956 1747 
Q 2956 2369 2687 2733 
Q 2419 3097 1959 3097 
z
M 1959 3584 
Q 2709 3584 3137 3096 
Q 3566 2609 3566 1747 
Q 3566 888 3137 398 
Q 2709 -91 1959 -91 
Q 1206 -91 779 398 
Q 353 888 353 1747 
Q 353 2609 779 3096 
Q 1206 3584 1959 3584 
z
" transform="scale(0.015625)"/>
      <path id="DejaVuSans-66" d="M 2375 4863 
L 2375 4384 
L 1825 4384 
Q 1516 4384 1395 4259 
Q 1275 4134 1275 3809 
L 1275 3500 
L 2222 3500 
L 2222 3053 
L 1275 3053 
L 1275 0 
L 697 0 
L 697 3053 
L 147 3053 
L 147 3500 
L 697 3500 
L 697 3744 
Q 697 4328 969 4595 
Q 1241 4863 1831 4863 
L 2375 4863 
z
" transform="scale(0.015625)"/>
      <path id="DejaVuSans-6c" d="M 603 4863 
L 1178 4863 
L 1178 0 
L 603 0 
L 603 4863 
z
" transform="scale(0.015625)"/>
      <path id="DejaVuSans-6e" d="M 3513 2113 
L 3513 0 
L 2938 0 
L 2938 2094 
Q 2938 2591 2744 2837 
Q 2550 3084 2163 3084 
Q 1697 3084 1428 2787 
Q 1159 2491 1159 1978 
L 1159 0 
L 581 0 
L 581 3500 
L 1159 3500 
L 1159 2956 
Q 1366 3272 1645 3428 
Q 1925 3584 2291 3584 
Q 2894 3584 3203 3211 
Q 3513 2838 3513 2113 
z
" transform="scale(0.015625)"/>
      <path id="DejaVuSans-20" transform="scale(0.015625)"/>
      <path id="DejaVuSans-62" d="M 3116 1747 
Q 3116 2381 2855 2742 
Q 2594 3103 2138 3103 
Q 1681 3103 1420 2742 
Q 1159 2381 1159 1747 
Q 1159 1113 1420 752 
Q 1681 391 2138 391 
Q 2594 391 2855 752 
Q 3116 1113 3116 1747 
z
M 1159 2969 
Q 1341 3281 1617 3432 
Q 1894 3584 2278 3584 
Q 2916 3584 3314 3078 
Q 3713 2572 3713 1747 
Q 3713 922 3314 415 
Q 2916 -91 2278 -91 
Q 1894 -91 1617 61 
Q 1341 213 1159 525 
L 1159 0 
L 581 0 
L 581 4863 
L 1159 4863 
L 1159 2969 
z
" transform="scale(0.015625)"/>
      <path id="DejaVuSans-7a" d="M 353 3500 
L 3084 3500 
L 3084 2975 
L 922 459 
L 3084 459 
L 3084 0 
L 275 0 
L 275 525 
L 2438 3041 
L 353 3041 
L 353 3500 
z
" transform="scale(0.015625)"/>
      <path id="DejaVuSans-e4" d="M 2194 1759 
Q 1497 1759 1228 1600 
Q 959 1441 959 1056 
Q 959 750 1161 570 
Q 1363 391 1709 391 
Q 2188 391 2477 730 
Q 2766 1069 2766 1631 
L 2766 1759 
L 2194 1759 
z
M 3341 1997 
L 3341 0 
L 2766 0 
L 2766 531 
Q 2569 213 2275 61 
Q 1981 -91 1556 -91 
Q 1019 -91 701 211 
Q 384 513 384 1019 
Q 384 1609 779 1909 
Q 1175 2209 1959 2209 
L 2766 2209 
L 2766 2266 
Q 2766 2663 2505 2880 
Q 2244 3097 1772 3097 
Q 1472 3097 1187 3025 
Q 903 2953 641 2809 
L 641 3341 
Q 956 3463 1253 3523 
Q 1550 3584 1831 3584 
Q 2591 3584 2966 3190 
Q 3341 2797 3341 1997 
z
M 2150 4850 
L 2784 4850 
L 2784 4219 
L 2150 4219 
L 2150 4850 
z
M 928 4850 
L 1562 4850 
L 1562 4219 
L 928 4219 
L 928 4850 
z
" transform="scale(0.015625)"/>
      <path id="DejaVuSans-68" d="M 3513 2113 
L 3513 0 
L 2938 0 
L 2938 2094 
Q 2938 2591 2744 2837 
Q 2550 3084 2163 3084 
Q 1697 3084 1428 2787 
Q 1159 2491 1159 1978 
L 1159 0 
L 581 0 
L 581 4863 
L 1159 4863 
L 1159 2956 
Q 1366 3272 1645 3428 
Q 1925 3584 2291 3584 
Q 2894 3584 3203 3211 
Q 3513 2838 3513 2113 
z
" transform="scale(0.015625)"/>
     </defs>
     <use xlink:href="#DejaVuSans-4b"/>
     <use xlink:href="#DejaVuSans-61" transform="translate(63.826172 0)"/>
     <use xlink:href="#DejaVuSans-72" transform="translate(125.105469 0)"/>
     <use xlink:href="#DejaVuSans-74" transform="translate(166.21875 0)"/>
     <use xlink:href="#DejaVuSans-6f" transform="translate(205.427734 0)"/>
     <use xlink:href="#DejaVuSans-66" transform="translate(266.609375 0)"/>
     <use xlink:href="#DejaVuSans-66" transform="translate(301.814453 0)"/>
     <use xlink:href="#DejaVuSans-65" transform="translate(337.019531 0)"/>
     <use xlink:href="#DejaVuSans-6c" transform="translate(398.542969 0)"/>
     <use xlink:href="#DejaVuSans-6e" transform="translate(426.326172 0)"/>
     <use xlink:href="#DejaVuSans-20" transform="translate(489.705078 0)"/>
     <use xlink:href="#DejaVuSans-61" transform="translate(521.492188 0)"/>
     <use xlink:href="#DejaVuSans-62" transform="translate(582.771484 0)"/>
     <use xlink:href="#DejaVuSans-7a" transform="translate(646.248047 0)"/>
     <use xlink:href="#DejaVuSans-e4" transform="translate(698.738281 0)"/>
     <use xlink:href="#DejaVuSans-68" transform="translate(760.017578 0)"/>
     <use xlink:href="#DejaVuSans-6c" transform="translate(823.396484 0)"/>
     <use xlink:href="#DejaVuSans-65" transform="translate(851.179688 0)"/>
     <use xlink:href="#DejaVuSans-6e" transform="translate(912.703125 0)"/>
    </g>
   </g>
   <g id="text_3">
    <!-- Ja -->
    <g transform="translate(105.559124 474.645775) scale(0.125 -0.125)">
     <defs>
      <path id="DejaVuSans-4a" d="M 628 4666 
L 1259 4666 
L 1259 325 
Q 1259 -519 939 -900 
Q 619 -1281 -91 -1281 
L -331 -1281 
L -331 -750 
L -134 -750 
Q 284 -750 456 -515 
Q 628 -281 628 325 
L 628 4666 
z
" transform="scale(0.015625)"/>
     </defs>
     <use xlink:href="#DejaVuSans-4a"/>
     <use xlink:href="#DejaVuSans-61" transform="translate(29.492188 0)"/>
    </g>
   </g>
   <g id="text_4">
    <!-- Nein -->
    <g transform="translate(172.450102 414.346343) scale(0.125 -0.125)">
     <defs>
      <path id="DejaVuSans-4e" d="M 628 4666 
L 1478 4666 
L 3547 763 
L 3547 4666 
L 4159 4666 
L 4159 0 
L 3309 0 
L 1241 3903 
L 1241 0 
L 628 0 
L 628 4666 
z
" transform="scale(0.015625)"/>
     </defs>
     <use xlink:href="#DejaVuSans-4e"/>
     <use xlink:href="#DejaVuSans-65" transform="translate(74.804688 0)"/>
     <use xlink:href="#DejaVuSans-69" transform="translate(136.328125 0)"/>
     <use xlink:href="#DejaVuSans-6e" transform="translate(164.111328 0)"/>
    </g>
   </g>
   <g id="text_5">
    <!-- Mit Schale? -->
    <g transform="translate(65.218968 425.075172) scale(0.125 -0.125)">
     <defs>
      <path id="DejaVuSans-53" d="M 3425 4513 
L 3425 3897 
Q 3066 4069 2747 4153 
Q 2428 4238 2131 4238 
Q 1616 4238 1336 4038 
Q 1056 3838 1056 3469 
Q 1056 3159 1242 3001 
Q 1428 2844 1947 2747 
L 2328 2669 
Q 3034 2534 3370 2195 
Q 3706 1856 3706 1288 
Q 3706 609 3251 259 
Q 2797 -91 1919 -91 
Q 1588 -91 1214 -16 
Q 841 59 441 206 
L 441 856 
Q 825 641 1194 531 
Q 1563 422 1919 422 
Q 2459 422 2753 634 
Q 3047 847 3047 1241 
Q 3047 1584 2836 1778 
Q 2625 1972 2144 2069 
L 1759 2144 
Q 1053 2284 737 2584 
Q 422 2884 422 3419 
Q 422 4038 858 4394 
Q 1294 4750 2059 4750 
Q 2388 4750 2728 4690 
Q 3069 4631 3425 4513 
z
" transform="scale(0.015625)"/>
      <path id="DejaVuSans-63" d="M 3122 3366 
L 3122 2828 
Q 2878 2963 2633 3030 
Q 2388 3097 2138 3097 
Q 1578 3097 1268 2742 
Q 959 2388 959 1747 
Q 959 1106 1268 751 
Q 1578 397 2138 397 
Q 2388 397 2633 464 
Q 2878 531 3122 666 
L 3122 134 
Q 2881 22 2623 -34 
Q 2366 -91 2075 -91 
Q 1284 -91 818 406 
Q 353 903 353 1747 
Q 353 2603 823 3093 
Q 1294 3584 2113 3584 
Q 2378 3584 2631 3529 
Q 2884 3475 3122 3366 
z
" transform="scale(0.015625)"/>
      <path id="DejaVuSans-3f" d="M 1222 794 
L 1856 794 
L 1856 0 
L 1222 0 
L 1222 794 
z
M 1838 1253 
L 1241 1253 
L 1241 1734 
Q 1241 2050 1328 2253 
Q 1416 2456 1697 2725 
L 1978 3003 
Q 2156 3169 2236 3316 
Q 2316 3463 2316 3616 
Q 2316 3894 2111 4066 
Q 1906 4238 1569 4238 
Q 1322 4238 1042 4128 
Q 763 4019 459 3809 
L 459 4397 
Q 753 4575 1054 4662 
Q 1356 4750 1678 4750 
Q 2253 4750 2601 4447 
Q 2950 4144 2950 3647 
Q 2950 3409 2837 3195 
Q 2725 2981 2444 2713 
L 2169 2444 
Q 2022 2297 1961 2214 
Q 1900 2131 1875 2053 
Q 1856 1988 1847 1894 
Q 1838 1800 1838 1638 
L 1838 1253 
z
" transform="scale(0.015625)"/>
     </defs>
     <use xlink:href="#DejaVuSans-4d"/>
     <use xlink:href="#DejaVuSans-69" transform="translate(86.279297 0)"/>
     <use xlink:href="#DejaVuSans-74" transform="translate(114.0625 0)"/>
     <use xlink:href="#DejaVuSans-20" transform="translate(153.271484 0)"/>
     <use xlink:href="#DejaVuSans-53" transform="translate(185.058594 0)"/>
     <use xlink:href="#DejaVuSans-63" transform="translate(248.535156 0)"/>
     <use xlink:href="#DejaVuSans-68" transform="translate(303.515625 0)"/>
     <use xlink:href="#DejaVuSans-61" transform="translate(366.894531 0)"/>
     <use xlink:href="#DejaVuSans-6c" transform="translate(428.173828 0)"/>
     <use xlink:href="#DejaVuSans-65" transform="translate(455.957031 0)"/>
     <use xlink:href="#DejaVuSans-3f" transform="translate(517.480469 0)"/>
    </g>
   </g>
   <g id="text_6">
    <!-- Kartoffeln kochen -->
    <g transform="translate(45.865452 607.916947) scale(0.125 -0.125)">
     <defs>
      <path id="DejaVuSans-6b" d="M 581 4863 
L 1159 4863 
L 1159 1991 
L 2875 3500 
L 3609 3500 
L 1753 1863 
L 3688 0 
L 2938 0 
L 1159 1709 
L 1159 0 
L 581 0 
L 581 4863 
z
" transform="scale(0.015625)"/>
     </defs>
     <use xlink:href="#DejaVuSans-4b"/>
     <use xlink:href="#DejaVuSans-61" transform="translate(63.826172 0)"/>
     <use xlink:href="#DejaVuSans-72" transform="translate(125.105469 0)"/>
     <use xlink:href="#DejaVuSans-74" transform="translate(166.21875 0)"/>
     <use xlink:href="#DejaVuSans-6f" transform="translate(205.427734 0)"/>
     <use xlink:href="#DejaVuSans-66" transform="translate(266.609375 0)"/>
     <use xlink:href="#DejaVuSans-66" transform="translate(301.814453 0)"/>
     <use xlink:href="#DejaVuSans-65" transform="translate(337.019531 0)"/>
     <use xlink:href="#DejaVuSans-6c" transform="translate(398.542969 0)"/>
     <use xlink:href="#DejaVuSans-6e" transform="translate(426.326172 0)"/>
     <use xlink:href="#DejaVuSans-20" transform="translate(489.705078 0)"/>
     <use xlink:href="#DejaVuSans-6b" transform="translate(521.492188 0)"/>
     <use xlink:href="#DejaVuSans-6f" transform="translate(575.777344 0)"/>
     <use xlink:href="#DejaVuSans-63" transform="translate(636.958984 0)"/>
     <use xlink:href="#DejaVuSans-68" transform="translate(691.939453 0)"/>
     <use xlink:href="#DejaVuSans-65" transform="translate(755.318359 0)"/>
     <use xlink:href="#DejaVuSans-6e" transform="translate(816.841797 0)"/>
    </g>
   </g>
   <g id="text_7">
    <!-- Kartoffeln essen -->
    <g transform="translate(50.122288 787.916947) scale(0.125 -0.125)">
     <use xlink:href="#DejaVuSans-4b"/>
     <use xlink:href="#DejaVuSans-61" transform="translate(63.826172 0)"/>
     <use xlink:href="#DejaVuSans-72" transform="translate(125.105469 0)"/>
     <use xlink:href="#DejaVuSans-74" transform="translate(166.21875 0)"/>
     <use xlink:href="#DejaVuSans-6f" transform="translate(205.427734 0)"/>
     <use xlink:href="#DejaVuSans-66" transform="translate(266.609375 0)"/>
     <use xlink:href="#DejaVuSans-66" transform="translate(301.814453 0)"/>
     <use xlink:href="#DejaVuSans-65" transform="translate(337.019531 0)"/>
     <use xlink:href="#DejaVuSans-6c" transform="translate(398.542969 0)"/>
     <use xlink:href="#DejaVuSans-6e" transform="translate(426.326172 0)"/>
     <use xlink:href="#DejaVuSans-20" transform="translate(489.705078 0)"/>
     <use xlink:href="#DejaVuSans-65" transform="translate(521.492188 0)"/>
     <use xlink:href="#DejaVuSans-73" transform="translate(583.015625 0)"/>
     <use xlink:href="#DejaVuSans-73" transform="translate(635.115234 0)"/>
     <use xlink:href="#DejaVuSans-65" transform="translate(687.214844 0)"/>
     <use xlink:href="#DejaVuSans-6e" transform="translate(748.738281 0)"/>
    </g>
   </g>
   <g id="text_8">
    <!-- Pause Ende -->
    <g transform="translate(64.78928 954.416947) scale(0.125 -0.125)">
     <defs>
      <path id="DejaVuSans-50" d="M 1259 4147 
L 1259 2394 
L 2053 2394 
Q 2494 2394 2734 2622 
Q 2975 2850 2975 3272 
Q 2975 3691 2734 3919 
Q 2494 4147 2053 4147 
L 1259 4147 
z
M 628 4666 
L 2053 4666 
Q 2838 4666 3239 4311 
Q 3641 3956 3641 3272 
Q 3641 2581 3239 2228 
Q 2838 1875 2053 1875 
L 1259 1875 
L 1259 0 
L 628 0 
L 628 4666 
z
" transform="scale(0.015625)"/>
      <path id="DejaVuSans-45" d="M 628 4666 
L 3578 4666 
L 3578 4134 
L 1259 4134 
L 1259 2753 
L 3481 2753 
L 3481 2222 
L 1259 2222 
L 1259 531 
L 3634 531 
L 3634 0 
L 628 0 
L 628 4666 
z
" transform="scale(0.015625)"/>
      <path id="DejaVuSans-64" d="M 2906 2969 
L 2906 4863 
L 3481 4863 
L 3481 0 
L 2906 0 
L 2906 525 
Q 2725 213 2448 61 
Q 2172 -91 1784 -91 
Q 1150 -91 751 415 
Q 353 922 353 1747 
Q 353 2572 751 3078 
Q 1150 3584 1784 3584 
Q 2172 3584 2448 3432 
Q 2725 3281 2906 2969 
z
M 947 1747 
Q 947 1113 1208 752 
Q 1469 391 1925 391 
Q 2381 391 2643 752 
Q 2906 1113 2906 1747 
Q 2906 2381 2643 2742 
Q 2381 3103 1925 3103 
Q 1469 3103 1208 2742 
Q 947 2381 947 1747 
z
" transform="scale(0.015625)"/>
     </defs>
     <use xlink:href="#DejaVuSans-50"/>
     <use xlink:href="#DejaVuSans-61" transform="translate(55.802734 0)"/>
     <use xlink:href="#DejaVuSans-75" transform="translate(117.082031 0)"/>
     <use xlink:href="#DejaVuSans-73" transform="translate(180.460938 0)"/>
     <use xlink:href="#DejaVuSans-65" transform="translate(232.560547 0)"/>
     <use xlink:href="#DejaVuSans-20" transform="translate(294.083984 0)"/>
     <use xlink:href="#DejaVuSans-45" transform="translate(325.871094 0)"/>
     <use xlink:href="#DejaVuSans-6e" transform="translate(389.054688 0)"/>
     <use xlink:href="#DejaVuSans-64" transform="translate(452.433594 0)"/>
     <use xlink:href="#DejaVuSans-65" transform="translate(515.910156 0)"/>
    </g>
   </g>
   <g id="text_9">
    <!-- Kartoffeln schälen -->
    <g transform="translate(291.607711 425.075172) scale(0.125 -0.125)">
     <use xlink:href="#DejaVuSans-4b"/>
     <use xlink:href="#DejaVuSans-61" transform="translate(63.826172 0)"/>
     <use xlink:href="#DejaVuSans-72" transform="translate(125.105469 0)"/>
     <use xlink:href="#DejaVuSans-74" transform="translate(166.21875 0)"/>
     <use xlink:href="#DejaVuSans-6f" transform="translate(205.427734 0)"/>
     <use xlink:href="#DejaVuSans-66" transform="translate(266.609375 0)"/>
     <use xlink:href="#DejaVuSans-66" transform="translate(301.814453 0)"/>
     <use xlink:href="#DejaVuSans-65" transform="translate(337.019531 0)"/>
     <use xlink:href="#DejaVuSans-6c" transform="translate(398.542969 0)"/>
     <use xlink:href="#DejaVuSans-6e" transform="translate(426.326172 0)"/>
     <use xlink:href="#DejaVuSans-20" transform="translate(489.705078 0)"/>
     <use xlink:href="#DejaVuSans-73" transform="translate(521.492188 0)"/>
     <use xlink:href="#DejaVuSans-63" transform="translate(573.591797 0)"/>
     <use xlink:href="#DejaVuSans-68" transform="translate(628.572266 0)"/>
     <use xlink:href="#DejaVuSans-e4" transform="translate(691.951172 0)"/>
     <use xlink:href="#DejaVuSans-6c" transform="translate(753.230469 0)"/>
     <use xlink:href="#DejaVuSans-65" transform="translate(781.013672 0)"/>
     <use xlink:href="#DejaVuSans-6e" transform="translate(842.537109 0)"/>
    </g>
   </g>
  </g>
 </g>
 <defs>
  <clipPath id="p8ccd2f562b">
   <rect x="3.6" y="3.6" width="436.944726" height="1016.051906"/>
  </clipPath>
 </defs>
</svg>
